<svg width="185" height="27" viewBox="0 0 185 27" fill="none" xmlns="http://www.w3.org/2000/svg">
<g clip-path="url(#clip0_262_148)">
<path fill-rule="evenodd" clip-rule="evenodd" d="M13.2441 19.2242C14.1571 18.4654 15.0815 17.6241 15.9962 16.7094C16.9109 15.7948 17.7521 14.8704 18.5109 13.9573C17.7521 13.0442 16.9109 12.1198 15.9962 11.2051C15.0815 10.2905 14.1571 9.44919 13.2441 8.69039C12.3309 9.44919 11.4066 10.2905 10.4918 11.2051C9.57716 12.1198 8.73597 13.0442 7.9771 13.9573C8.73597 14.8704 9.57716 15.7948 10.4918 16.7094C11.4066 17.6241 12.3309 18.4654 13.2441 19.2242ZM15.0571 20.6352C15.9036 19.9139 16.7509 19.1324 17.585 18.2983C18.4192 17.4641 19.2007 16.6169 19.9219 15.7703C20.8182 17.0062 21.5434 18.193 22.0736 19.2745C22.6594 20.4696 22.9783 21.4782 23.0595 22.2471C23.1421 23.0283 22.9673 23.379 22.8166 23.5298C22.6657 23.6806 22.3151 23.8554 21.5339 23.7728C20.7649 23.6915 19.7564 23.3727 18.5613 22.7869C17.4798 22.2567 16.2929 21.5314 15.0571 20.6352ZM13.2441 22.0893C14.7467 23.2199 16.2157 24.1395 17.5722 24.8044C18.8949 25.4528 20.1689 25.888 21.2977 26.0073C22.4143 26.1253 23.5769 25.9472 24.4054 25.1186C25.2339 24.2901 25.412 23.1276 25.2941 22.011C25.1748 20.8821 24.7396 19.6082 24.0912 18.2855C23.4262 16.929 22.5066 15.4599 21.376 13.9573C22.5066 12.4547 23.4262 10.9856 24.0912 9.6291C24.7396 8.30631 25.1748 7.03241 25.294 5.90359C25.412 4.78701 25.2339 3.62447 24.4054 2.79591C23.5769 1.96735 22.4143 1.78926 21.2977 1.90727C20.1689 2.02657 18.8949 2.46174 17.5722 3.11013C16.2157 3.77509 14.7467 4.69472 13.2441 5.8253C11.7414 4.69472 10.2724 3.77509 8.91581 3.11013C7.59309 2.46174 6.31916 2.02657 5.19034 1.90727C4.07376 1.78926 2.91122 1.96735 2.08265 2.79591C1.25409 3.62447 1.076 4.78701 1.19401 5.90359C1.31332 7.03242 1.74848 8.30631 2.39687 9.6291C3.06184 10.9856 3.98147 12.4547 5.11204 13.9573C3.98147 15.4599 3.06184 16.929 2.39687 18.2855C1.74848 19.6082 1.31331 20.8821 1.19401 22.011C1.076 23.1276 1.25409 24.2901 2.08265 25.1186C2.91121 25.9472 4.07375 26.1253 5.19033 26.0073C6.31915 25.888 7.59309 25.4528 8.91581 24.8044C10.2724 24.1395 11.7414 23.2199 13.2441 22.0893ZM11.431 20.6352C10.5844 19.9139 9.73715 19.1324 8.903 18.2983C8.06885 17.4641 7.28737 16.6169 6.56615 15.7703C5.66986 17.0062 4.9446 18.193 4.41446 19.2745C3.82861 20.4696 3.5098 21.4782 3.42853 22.2471C3.34596 23.0283 3.52069 23.379 3.6715 23.5298C3.8223 23.6806 4.17294 23.8554 4.95417 23.7728C5.72316 23.6915 6.73165 23.3727 7.92677 22.7869C9.00823 22.2567 10.1952 21.5314 11.431 20.6352ZM6.56615 12.1443C7.28737 11.2977 8.06885 10.4504 8.903 9.61629C9.73715 8.78214 10.5844 8.00065 11.431 7.2794C10.1952 6.38312 9.00831 5.65785 7.92677 5.12772C6.73166 4.54187 5.72316 4.22306 4.95418 4.14178C4.17294 4.05921 3.82231 4.23395 3.6715 4.38475C3.5207 4.53556 3.34596 4.88619 3.42853 5.66743C3.50981 6.43641 3.82862 7.44491 4.41447 8.64006C4.9446 9.72152 5.66986 10.9084 6.56615 12.1443ZM15.0571 7.2794C15.9036 8.00065 16.7509 8.78214 17.585 9.61629C18.4192 10.4504 19.2007 11.2977 19.9219 12.1443C20.8182 10.9084 21.5434 9.72152 22.0736 8.64006C22.6594 7.44491 22.9783 6.43641 23.0595 5.66743C23.1421 4.88619 22.9673 4.53556 22.8166 4.38475C22.6657 4.23395 22.3151 4.05921 21.5339 4.14178C20.7649 4.22306 19.7564 4.54187 18.5613 5.12772C17.4798 5.65785 16.2929 6.38312 15.0571 7.2794Z" fill="white"/>
<path d="M50.0167 11.6668H47.0394C46.9545 11.1786 46.7979 10.746 46.5697 10.3692C46.3415 9.98706 46.0576 9.66335 45.7179 9.39798C45.3782 9.13262 44.9908 8.93361 44.5556 8.80089C44.1257 8.66293 43.6613 8.59395 43.1625 8.59395C42.2762 8.59395 41.4907 8.81684 40.8061 9.26264C40.1215 9.70312 39.5854 10.3506 39.198 11.2051C38.8106 12.0543 38.6169 13.0918 38.6169 14.3178C38.6169 15.5649 38.8106 16.6158 39.198 17.4703C39.5907 18.3194 40.1268 18.9616 40.8061 19.3967C41.4907 19.8267 42.2735 20.0415 43.1545 20.0415C43.6428 20.0415 44.0992 19.9779 44.5238 19.8505C44.9536 19.7178 45.3385 19.5241 45.6781 19.2693C46.023 19.0146 46.3123 18.7015 46.5458 18.33C46.7846 17.9585 46.9492 17.5339 47.0394 17.0563L50.0167 17.0722C49.9053 17.847 49.6638 18.5741 49.2923 19.2535C48.9261 19.9328 48.4458 20.5325 47.8514 21.0526C47.257 21.5674 46.5617 21.9707 45.7657 22.2627C44.9696 22.5492 44.0859 22.6925 43.1147 22.6925C41.6818 22.6925 40.4027 22.3608 39.2776 21.6974C38.1525 21.034 37.2662 20.0761 36.6187 18.8235C35.9712 17.5711 35.6475 16.0691 35.6475 14.3178C35.6475 12.5611 35.9739 11.0592 36.6267 9.81195C37.2794 8.55942 38.1684 7.60146 39.2935 6.9381C40.4187 6.2747 41.6924 5.94299 43.1147 5.94299C44.0223 5.94299 44.8661 6.07037 45.6462 6.32511C46.4264 6.57986 47.1217 6.95401 47.732 7.44759C48.3423 7.93588 48.8439 8.5356 49.2366 9.24676C49.6346 9.95261 49.8946 10.7593 50.0167 11.6668Z" fill="white"/>
<path d="M52.5942 22.4696V10.2418H55.3885V12.2798H55.5158C55.7387 11.5739 56.1209 11.0299 56.6622 10.6478C57.2088 10.2603 57.8324 10.0667 58.533 10.0667C58.6922 10.0667 58.87 10.0746 59.0663 10.0905C59.268 10.1012 59.4352 10.1198 59.5679 10.1463V12.7972C59.4458 12.7548 59.2521 12.7176 58.9868 12.6858C58.7267 12.6486 58.4746 12.6301 58.2304 12.6301C57.705 12.6301 57.2327 12.7441 56.8134 12.9723C56.3995 13.1952 56.0731 13.5057 55.8343 13.9038C55.5954 14.3018 55.476 14.7609 55.476 15.281V22.4696H52.5942Z" fill="white"/>
<path d="M63.6456 27.0551C63.253 27.0551 62.8894 27.0232 62.555 26.9595C62.226 26.9012 61.9633 26.8322 61.767 26.7526L62.4357 24.5076C62.8549 24.6297 63.2291 24.6881 63.5581 24.6828C63.8871 24.6774 64.1764 24.5739 64.4259 24.3723C64.6806 24.1759 64.8956 23.8469 65.0707 23.3851L65.3175 22.7244L60.8833 10.2418H63.9402L66.7584 19.4764H66.8857L69.7118 10.2418H72.7767L67.8808 23.9504C67.6526 24.5978 67.3501 25.1524 66.9733 25.6142C66.5965 26.0812 66.1348 26.4368 65.5881 26.6809C65.0468 26.9303 64.3993 27.0551 63.6456 27.0551Z" fill="white"/>
<path d="M84.4357 13.4739L81.8083 13.7605C81.7341 13.4952 81.6038 13.2457 81.4181 13.0122C81.2376 12.7787 80.9934 12.5903 80.6856 12.447C80.3777 12.3037 80.001 12.232 79.5553 12.232C78.9554 12.232 78.4513 12.362 78.0431 12.6221C77.6394 12.8821 77.4402 13.2192 77.4462 13.6331C77.4402 13.9887 77.5705 14.2779 77.8357 14.5008C78.1068 14.7237 78.5524 14.9069 79.1734 15.0502L81.2593 15.496C82.4157 15.7454 83.2756 16.1408 83.838 16.6821C84.4065 17.2235 84.6926 17.932 84.6979 18.8077C84.6926 19.5772 84.4672 20.2565 84.0215 20.8456C83.5811 21.4294 82.9677 21.8859 82.1828 22.2149C81.3971 22.5439 80.4946 22.7085 79.4759 22.7085C77.9795 22.7085 76.7743 22.3953 75.8613 21.7691C74.9491 21.1376 74.4048 20.2592 74.2297 19.1341L77.0402 18.8634C77.1676 19.4153 77.438 19.8319 77.8521 20.1132C78.2656 20.3945 78.8049 20.5351 79.4677 20.5351C80.1523 20.5351 80.702 20.3945 81.1155 20.1132C81.5349 19.8319 81.7446 19.4843 81.7446 19.0703C81.7446 18.7201 81.6091 18.4309 81.3387 18.2026C81.0735 17.9744 80.6593 17.7993 80.0969 17.6772L78.0109 17.2394C76.838 16.9953 75.9707 16.5839 75.4082 16.0055C74.8453 15.4217 74.5667 14.684 74.572 13.7924C74.5667 13.0387 74.771 12.3859 75.185 11.834C75.6044 11.2768 76.1856 10.8468 76.9286 10.5443C77.6769 10.2366 78.539 10.0826 79.5156 10.0826C80.9485 10.0826 82.0764 10.3878 82.8988 10.9981C83.7272 11.6084 84.2388 12.4337 84.4357 13.4739Z" fill="white"/>
<path d="M93.1801 10.2418V12.4709H86.1509V10.2418H93.1801ZM87.8863 7.31226H90.7684V18.7917C90.7684 19.1792 90.8268 19.4764 90.9436 19.6833C91.0657 19.885 91.2245 20.023 91.4208 20.0973C91.6177 20.1716 91.8349 20.2087 92.0739 20.2087C92.2544 20.2087 92.4184 20.1955 92.5675 20.169C92.721 20.1424 92.8378 20.1185 92.918 20.0973L93.4033 22.3502C93.249 22.4033 93.0288 22.4617 92.7427 22.5253C92.4611 22.589 92.1166 22.6262 91.7076 22.6368C90.9856 22.6581 90.3355 22.5492 89.7573 22.3104C89.179 22.0663 88.7199 21.6895 88.3799 21.1799C88.0458 20.6705 87.881 20.0336 87.8863 19.2693V7.31226Z" fill="white"/>
<path d="M99.1091 22.7164C98.3346 22.7164 97.6365 22.5785 97.0156 22.3025C96.4 22.0212 95.9116 21.6072 95.5506 21.0606C95.1948 20.5139 95.0173 19.8399 95.0173 19.0385C95.0173 18.3486 95.1447 17.778 95.3993 17.3269C95.654 16.8758 96.0015 16.5149 96.4419 16.2443C96.8831 15.9736 97.3789 15.7693 97.9309 15.6313C98.4881 15.488 99.0641 15.3845 99.6581 15.3208C100.375 15.2465 100.956 15.1802 101.402 15.1218C101.847 15.0581 102.172 14.9626 102.373 14.8352C102.58 14.7025 102.683 14.4982 102.683 14.2222V14.1745C102.683 13.5748 102.506 13.1103 102.15 12.7813C101.794 12.4523 101.283 12.2877 100.614 12.2877C99.9075 12.2877 99.348 12.4417 98.9338 12.7495C98.5256 13.0573 98.2492 13.4209 98.1062 13.8401L95.415 13.458C95.6278 12.715 95.9775 12.094 96.4659 11.5951C96.9542 11.091 97.5512 10.7142 98.2575 10.4648C98.963 10.21 99.7434 10.0826 100.598 10.0826C101.187 10.0826 101.773 10.1516 102.357 10.2896C102.941 10.4276 103.474 10.6558 103.957 10.9742C104.44 11.2874 104.828 11.7146 105.12 12.2559C105.417 12.7973 105.565 13.4739 105.565 14.286V22.4696H102.795V20.7899H102.7C102.524 21.1295 102.277 21.448 101.959 21.7452C101.646 22.0371 101.25 22.2732 100.773 22.4537C100.301 22.6289 99.7457 22.7164 99.1091 22.7164ZM99.8573 20.5988C100.436 20.5988 100.937 20.4847 101.362 20.2565C101.787 20.023 102.113 19.7152 102.341 19.3331C102.575 18.951 102.691 18.5344 102.691 18.0833V16.6424C102.602 16.7167 102.447 16.7856 102.23 16.8493C102.017 16.913 101.778 16.9687 101.513 17.0165C101.248 17.0643 100.985 17.1067 100.725 17.1439C100.465 17.181 100.239 17.2129 100.048 17.2394C99.6184 17.2978 99.2341 17.3933 98.8941 17.526C98.5548 17.6587 98.2867 17.8444 98.0904 18.0833C97.8934 18.3167 97.7953 18.6192 97.7953 18.9907C97.7953 19.5215 97.9893 19.9222 98.3765 20.1929C98.7638 20.4635 99.2573 20.5988 99.8573 20.5988Z" fill="white"/>
<path d="M111.344 6.16589V22.4696H108.463V6.16589H111.344Z" fill="white"/>
<path d="M119.996 22.4696V6.16589H130.441V8.64172H122.949V13.0679H129.725V15.5437H122.949V22.4696H119.996Z" fill="white"/>
<path d="M137.44 22.7085C136.246 22.7085 135.211 22.4457 134.336 21.9203C133.46 21.3949 132.781 20.6598 132.298 19.7152C131.82 18.7705 131.582 17.6666 131.582 16.4035C131.582 15.1404 131.82 14.0339 132.298 13.0838C132.781 12.1338 133.46 11.3961 134.336 10.8707C135.211 10.3453 136.246 10.0826 137.44 10.0826C138.635 10.0826 139.67 10.3453 140.545 10.8707C141.421 11.3961 142.097 12.1338 142.575 13.0838C143.058 14.0339 143.299 15.1404 143.299 16.4035C143.299 17.6666 143.058 18.7705 142.575 19.7152C142.097 20.6598 141.421 21.3949 140.545 21.9203C139.67 22.4457 138.635 22.7085 137.44 22.7085ZM137.457 20.3998C138.104 20.3998 138.645 20.2221 139.08 19.8664C139.516 19.5056 139.839 19.0226 140.052 18.4176C140.269 17.8126 140.378 17.1386 140.378 16.3956C140.378 15.6472 140.269 14.9705 140.052 14.3655C139.839 13.7552 139.516 13.2696 139.08 12.9087C138.645 12.5478 138.104 12.3674 137.457 12.3674C136.793 12.3674 136.241 12.5478 135.801 12.9087C135.365 13.2696 135.039 13.7552 134.822 14.3655C134.609 14.9705 134.503 15.6472 134.503 16.3956C134.503 17.1386 134.609 17.8126 134.822 18.4176C135.039 19.0226 135.365 19.5056 135.801 19.8664C136.241 20.2221 136.793 20.3998 137.457 20.3998Z" fill="white"/>
<path d="M145.746 22.4696V10.2418H148.54V12.2798H148.667C148.89 11.5739 149.272 11.0299 149.813 10.6478C150.36 10.2603 150.984 10.0667 151.684 10.0667C151.844 10.0667 152.021 10.0746 152.218 10.0905C152.419 10.1012 152.587 10.1198 152.719 10.1463V12.7972C152.597 12.7548 152.403 12.7176 152.138 12.6858C151.878 12.6486 151.626 12.6301 151.382 12.6301C150.857 12.6301 150.384 12.7441 149.965 12.9723C149.55 13.1952 149.225 13.5057 148.986 13.9038C148.747 14.3018 148.628 14.7609 148.628 15.281V22.4696H145.746Z" fill="white"/>
<path d="M154.634 22.4696V10.2418H157.388V12.3196H157.532C157.786 11.619 158.208 11.0724 158.797 10.6797C159.386 10.2816 160.089 10.0826 160.907 10.0826C161.735 10.0826 162.433 10.2843 163.001 10.6877C163.574 11.0857 163.977 11.6297 164.21 12.3196H164.338C164.609 11.6403 165.065 11.0989 165.708 10.6956C166.355 10.287 167.122 10.0826 168.008 10.0826C169.133 10.0826 170.051 10.4382 170.762 11.1493C171.473 11.8605 171.829 12.8981 171.829 14.2621V22.4696H168.939V14.7079C168.939 13.9489 168.738 13.3943 168.334 13.0441C167.931 12.6884 167.437 12.5106 166.854 12.5106C166.158 12.5106 165.615 12.7283 165.221 13.1635C164.834 13.5934 164.64 14.1532 164.64 14.8432V22.4696H161.814V14.5884C161.814 13.9569 161.623 13.4527 161.241 13.0759C160.865 12.6991 160.371 12.5106 159.761 12.5106C159.346 12.5106 158.97 12.6168 158.63 12.8291C158.29 13.036 158.02 13.3306 157.818 13.7128C157.616 14.0896 157.516 14.5301 157.516 15.0343V22.4696H154.634Z" fill="white"/>
<path d="M184.417 13.4739L181.79 13.7605C181.716 13.4952 181.585 13.2457 181.4 13.0122C181.22 12.7787 180.976 12.5903 180.668 12.447C180.36 12.3037 179.983 12.232 179.537 12.232C178.938 12.232 178.433 12.362 178.025 12.6221C177.621 12.8821 177.423 13.2192 177.428 13.6331C177.423 13.9887 177.552 14.2779 177.817 14.5008C178.088 14.7237 178.534 14.9069 179.155 15.0502L181.241 15.496C182.398 15.7454 183.257 16.1408 183.82 16.6821C184.388 17.2235 184.674 17.932 184.68 18.8077C184.674 19.5772 184.449 20.2565 184.003 20.8456C183.563 21.4294 182.949 21.8859 182.164 22.2149C181.379 22.5439 180.477 22.7085 179.458 22.7085C177.961 22.7085 176.756 22.3953 175.844 21.7691C174.931 21.1376 174.387 20.2592 174.212 19.1341L177.022 18.8634C177.149 19.4153 177.42 19.8319 177.834 20.1132C178.247 20.3945 178.786 20.5351 179.449 20.5351C180.134 20.5351 180.684 20.3945 181.098 20.1132C181.517 19.8319 181.726 19.4843 181.726 19.0703C181.726 18.7201 181.591 18.4309 181.32 18.2026C181.055 17.9744 180.641 17.7993 180.078 17.6772L177.993 17.2394C176.82 16.9953 175.952 16.5839 175.39 16.0055C174.827 15.4217 174.549 14.684 174.554 13.7924C174.549 13.0387 174.752 12.3859 175.167 11.834C175.586 11.2768 176.167 10.8468 176.91 10.5443C177.659 10.2366 178.521 10.0826 179.497 10.0826C180.93 10.0826 182.058 10.3878 182.88 10.9981C183.709 11.6084 184.221 12.4337 184.417 13.4739Z" fill="white"/>
</g>
<defs>
<clipPath id="clip0_262_148">
<rect width="185" height="26.9636" fill="white"/>
</clipPath>
</defs>
</svg>
