<svg width="185" height="28" viewBox="0 0 185 28" fill="none" xmlns="http://www.w3.org/2000/svg">
<g clip-path="url(#clip0_222_58)">
<path fill-rule="evenodd" clip-rule="evenodd" d="M13.2441 20.0578C14.1571 19.299 15.0815 18.4577 15.9962 17.543C16.9109 16.6284 17.7521 15.704 18.5109 14.7909C17.7521 13.8778 16.9109 12.9534 15.9962 12.0387C15.0815 11.1241 14.1571 10.2828 13.2441 9.52401C12.3309 10.2828 11.4066 11.1241 10.4918 12.0387C9.57716 12.9534 8.73597 13.8778 7.9771 14.7909C8.73597 15.704 9.57716 16.6284 10.4918 17.543C11.4066 18.4577 12.3309 19.299 13.2441 20.0578ZM15.0571 21.4688C15.9036 20.7475 16.7509 19.966 17.585 19.1319C18.4192 18.2977 19.2007 17.4505 19.9219 16.6039C20.8182 17.8398 21.5434 19.0266 22.0736 20.1081C22.6594 21.3033 22.9783 22.3118 23.0595 23.0808C23.1421 23.862 22.9673 24.2126 22.8166 24.3634C22.6657 24.5143 22.3151 24.689 21.5339 24.6064C20.7649 24.5251 19.7564 24.2063 18.5613 23.6205C17.4798 23.0904 16.2929 22.365 15.0571 21.4688ZM13.2441 22.9229C14.7467 24.0535 16.2157 24.9731 17.5722 25.638C18.8949 26.2864 20.1689 26.7216 21.2977 26.8409C22.4143 26.959 23.5769 26.7808 24.4054 25.9522C25.2339 25.1237 25.412 23.9612 25.2941 22.8446C25.1748 21.7157 24.7396 20.4419 24.0912 19.1191C23.4262 17.7626 22.5066 16.2935 21.376 14.7909C22.5066 13.2883 23.4262 11.8192 24.0912 10.4627C24.7396 9.13993 25.1748 7.86603 25.294 6.73721C25.412 5.62063 25.2339 4.45809 24.4054 3.62953C23.5769 2.80097 22.4143 2.62287 21.2977 2.74089C20.1689 2.86018 18.8949 3.29535 17.5722 3.94374C16.2157 4.60871 14.7467 5.52834 13.2441 6.65892C11.7414 5.52834 10.2724 4.60871 8.91581 3.94374C7.59309 3.29535 6.31916 2.86018 5.19034 2.74089C4.07376 2.62287 2.91122 2.80097 2.08265 3.62953C1.25409 4.45809 1.076 5.62063 1.19401 6.73721C1.31332 7.86604 1.74848 9.13993 2.39687 10.4627C3.06184 11.8192 3.98147 13.2883 5.11204 14.7909C3.98147 16.2935 3.06184 17.7626 2.39687 19.1191C1.74848 20.4419 1.31331 21.7157 1.19401 22.8446C1.076 23.9612 1.25409 25.1237 2.08265 25.9522C2.91121 26.7808 4.07375 26.959 5.19033 26.8409C6.31915 26.7216 7.59309 26.2864 8.91581 25.638C10.2724 24.9731 11.7414 24.0535 13.2441 22.9229ZM11.431 21.4688C10.5844 20.7475 9.73715 19.966 8.903 19.1319C8.06885 18.2977 7.28737 17.4505 6.56615 16.6039C5.66986 17.8398 4.9446 19.0266 4.41446 20.1081C3.82861 21.3033 3.5098 22.3118 3.42853 23.0808C3.34596 23.862 3.52069 24.2126 3.6715 24.3634C3.8223 24.5143 4.17294 24.689 4.95417 24.6064C5.72316 24.5251 6.73165 24.2063 7.92677 23.6205C9.00823 23.0904 10.1952 22.365 11.431 21.4688ZM6.56615 12.9779C7.28737 12.1313 8.06885 11.2841 8.903 10.4499C9.73715 9.61576 10.5844 8.83427 11.431 8.11302C10.1952 7.21674 9.00831 6.49147 7.92677 5.96134C6.73166 5.37549 5.72316 5.05667 4.95418 4.9754C4.17294 4.89283 3.82231 5.06756 3.6715 5.21837C3.5207 5.36917 3.34596 5.71981 3.42853 6.50104C3.50981 7.27003 3.82862 8.27853 4.41447 9.47368C4.9446 10.5551 5.66986 11.742 6.56615 12.9779ZM15.0571 8.11302C15.9036 8.83427 16.7509 9.61576 17.585 10.4499C18.4192 11.2841 19.2007 12.1313 19.9219 12.9779C20.8182 11.742 21.5434 10.5551 22.0736 9.47368C22.6594 8.27853 22.9783 7.27003 23.0595 6.50104C23.1421 5.71981 22.9673 5.36917 22.8166 5.21837C22.6657 5.06756 22.3151 4.89283 21.5339 4.9754C20.7649 5.05667 19.7564 5.37549 18.5613 5.96134C17.4798 6.49147 16.2929 7.21674 15.0571 8.11302Z" fill="white"/>
<path d="M50.0168 12.5002H47.0395C46.9546 12.0119 46.7981 11.5794 46.5698 11.2026C46.3416 10.8204 46.0577 10.4967 45.718 10.2314C45.3784 9.96599 44.9909 9.76699 44.5557 9.63426C44.1258 9.4963 43.6615 9.42732 43.1626 9.42732C42.2763 9.42732 41.4908 9.65022 40.8062 10.096C40.1216 10.5365 39.5855 11.184 39.1982 12.0384C38.8107 12.8876 38.617 13.9251 38.617 15.1512C38.617 16.3983 38.8107 17.4491 39.1982 18.3036C39.5909 19.1528 40.1269 19.795 40.8062 20.2301C41.4908 20.66 42.2737 20.8749 43.1546 20.8749C43.6429 20.8749 44.0993 20.8113 44.5239 20.6839C44.9538 20.5512 45.3386 20.3575 45.6783 20.1027C46.0232 19.848 46.3124 19.5349 46.546 19.1634C46.7847 18.7918 46.9493 18.3673 47.0395 17.8897L50.0168 17.9056C49.9054 18.6804 49.6639 19.4075 49.2924 20.0868C48.9262 20.7662 48.4459 21.3659 47.8515 21.886C47.2571 22.4008 46.5618 22.8041 45.7658 23.096C44.9697 23.3826 44.0861 23.5259 43.1148 23.5259C41.6819 23.5259 40.4028 23.1942 39.2777 22.5308C38.1526 21.8674 37.2663 20.9095 36.6188 19.6569C35.9714 18.4045 35.6476 16.9025 35.6476 15.1512C35.6476 13.3945 35.974 11.8925 36.6268 10.6453C37.2796 9.39279 38.1685 8.43484 39.2937 7.77147C40.4188 7.10807 41.6925 6.77637 43.1148 6.77637C44.0224 6.77637 44.8662 6.90374 45.6463 7.15849C46.4266 7.41323 47.1218 7.78739 47.7321 8.28096C48.3424 8.76926 48.844 9.36897 49.2367 10.0801C49.6347 10.786 49.8948 11.5926 50.0168 12.5002Z" fill="white"/>
<path d="M52.5941 23.3033V11.0755H55.3884V13.1135H55.5157C55.7386 12.4077 56.1208 11.8637 56.6621 11.4815C57.2087 11.0941 57.8323 10.9004 58.5329 10.9004C58.6921 10.9004 58.8699 10.9083 59.0662 10.9243C59.2679 10.9349 59.4351 10.9535 59.5678 10.98V13.631C59.4457 13.5885 59.2521 13.5514 58.9867 13.5195C58.7266 13.4824 58.4745 13.4638 58.2304 13.4638C57.7049 13.4638 57.2326 13.5779 56.8133 13.8061C56.3994 14.029 56.073 14.3394 55.8342 14.7375C55.5953 15.1355 55.476 15.5946 55.476 16.1147V23.3033H52.5941Z" fill="white"/>
<path d="M63.6457 27.8885C63.253 27.8885 62.8895 27.8566 62.5551 27.7929C62.2261 27.7346 61.9633 27.6656 61.767 27.586L62.4357 25.341C62.8549 25.463 63.2291 25.5215 63.5582 25.5161C63.8872 25.5108 64.1764 25.4073 64.4259 25.2057C64.6807 25.0093 64.8956 24.6803 65.0707 24.2185L65.3175 23.5578L60.8834 11.0752H63.9403L66.7584 20.3098H66.8858L69.7118 11.0752H72.7768L67.8809 24.7838C67.6526 25.4312 67.3502 25.9858 66.9734 26.4476C66.5966 26.9146 66.1348 27.2702 65.5882 27.5143C65.0468 27.7637 64.3993 27.8885 63.6457 27.8885Z" fill="white"/>
<path d="M84.4356 14.3073L81.8082 14.5939C81.734 14.3286 81.6037 14.0791 81.418 13.8456C81.2375 13.6121 80.9933 13.4236 80.6855 13.2803C80.3776 13.1371 80.0009 13.0654 79.5552 13.0654C78.9553 13.0654 78.4512 13.1954 78.043 13.4555C77.6393 13.7155 77.4401 14.0526 77.4461 14.4665C77.4401 14.8221 77.5704 15.1113 77.8356 15.3342C78.1067 15.5571 78.5524 15.7402 79.1733 15.8835L81.2592 16.3293C82.4156 16.5788 83.2755 16.9742 83.838 17.5155C84.4064 18.0569 84.6925 18.7653 84.6978 19.641C84.6925 20.4106 84.4671 21.0899 84.0215 21.679C83.5811 22.2628 82.9676 22.7192 82.1827 23.0483C81.397 23.3773 80.4945 23.5419 79.4759 23.5419C77.9794 23.5419 76.7743 23.2287 75.8612 22.6025C74.949 21.9709 74.4048 21.0926 74.2296 19.9675L77.0401 19.6968C77.1675 20.2487 77.4379 20.6653 77.852 20.9466C78.2655 21.2279 78.8048 21.3685 79.4676 21.3685C80.1522 21.3685 80.7019 21.2279 81.1154 20.9466C81.5348 20.6653 81.7445 20.3177 81.7445 19.9037C81.7445 19.5535 81.609 19.2642 81.3386 19.036C81.0734 18.8078 80.6593 18.6327 80.0968 18.5106L78.0108 18.0727C76.8379 17.8286 75.9706 17.4173 75.4081 16.8389C74.8452 16.255 74.5666 15.5173 74.5719 14.6258C74.5666 13.8721 74.7709 13.2193 75.1849 12.6674C75.6043 12.1101 76.1856 11.6802 76.9285 11.3777C77.6768 11.0699 78.5389 10.916 79.5156 10.916C80.9484 10.916 82.0763 11.2212 82.8987 11.8315C83.7271 12.4418 84.2387 13.2671 84.4356 14.3073Z" fill="white"/>
<path d="M93.1801 11.0755V13.3046H86.1508V11.0755H93.1801ZM87.8862 8.146H90.7684V19.6255C90.7684 20.0129 90.8268 20.3101 90.9436 20.517C91.0657 20.7188 91.2245 20.8567 91.4207 20.931C91.6177 21.0053 91.8349 21.0425 92.0738 21.0425C92.2543 21.0425 92.4184 21.0292 92.5674 21.0027C92.721 20.9762 92.8378 20.9523 92.918 20.931L93.4033 23.184C93.249 23.237 93.0288 23.2954 92.7427 23.3591C92.4611 23.4227 92.1165 23.4599 91.7076 23.4705C90.9856 23.4918 90.3354 23.383 89.7572 23.1441C89.179 22.9 88.7199 22.5232 88.3798 22.0137C88.0458 21.5042 87.881 20.8674 87.8862 20.1031V8.146Z" fill="white"/>
<path d="M99.1091 23.5498C98.3346 23.5498 97.6366 23.4118 97.0157 23.1358C96.4 22.8546 95.9117 22.4406 95.5506 21.8939C95.1949 21.3473 95.0174 20.6733 95.0174 19.8719C95.0174 19.182 95.1447 18.6114 95.3993 18.1603C95.654 17.7092 96.0015 17.3483 96.4419 17.0776C96.8831 16.807 97.3789 16.6026 97.9309 16.4647C98.4882 16.3214 99.0641 16.2179 99.6581 16.1542C100.375 16.0799 100.956 16.0136 101.402 15.9552C101.847 15.8915 102.172 15.796 102.373 15.6686C102.58 15.5359 102.683 15.3316 102.683 15.0556V15.0079C102.683 14.4082 102.506 13.9437 102.15 13.6147C101.794 13.2857 101.283 13.1211 100.614 13.1211C99.9075 13.1211 99.348 13.275 98.9338 13.5829C98.5256 13.8907 98.2492 14.2543 98.1062 14.6735L95.4151 14.2914C95.6278 13.5483 95.9776 12.9274 96.4659 12.4285C96.9542 11.9244 97.5512 11.5476 98.2575 11.2981C98.963 11.0433 99.7435 10.916 100.598 10.916C101.187 10.916 101.773 10.985 102.357 11.123C102.941 11.261 103.474 11.4891 103.957 11.8076C104.44 12.1208 104.828 12.548 105.12 13.0893C105.417 13.6306 105.565 14.3073 105.565 15.1193V23.303H102.795V21.6232H102.7C102.524 21.9629 102.277 22.2814 101.959 22.5786C101.646 22.8705 101.25 23.1066 100.773 23.287C100.301 23.4622 99.7457 23.5498 99.1091 23.5498ZM99.8573 21.4322C100.436 21.4322 100.937 21.3181 101.362 21.0899C101.787 20.8564 102.113 20.5486 102.341 20.1665C102.575 19.7843 102.691 19.3677 102.691 18.9166V17.4757C102.602 17.55 102.447 17.619 102.23 17.6827C102.017 17.7463 101.778 17.8021 101.513 17.8498C101.248 17.8976 100.985 17.9401 100.725 17.9772C100.465 18.0144 100.239 18.0462 100.048 18.0727C99.6184 18.1312 99.2342 18.2267 98.8941 18.3594C98.5548 18.492 98.2867 18.6778 98.0905 18.9166C97.8935 19.1501 97.7954 19.4526 97.7954 19.8241C97.7954 20.3548 97.9893 20.7555 98.3766 21.0262C98.7638 21.2969 99.2574 21.4322 99.8573 21.4322Z" fill="white"/>
<path d="M111.345 6.99951V23.3032H108.463V6.99951H111.345Z" fill="white"/>
<path d="M119.996 23.3032V6.99951H130.441V9.47534H122.949V13.9016H129.725V16.3773H122.949V23.3032H119.996Z" fill="white"/>
<path d="M137.44 23.5419C136.246 23.5419 135.211 23.2791 134.335 22.7537C133.46 22.2283 132.781 21.4932 132.297 20.5486C131.82 19.6039 131.581 18.5 131.581 17.2369C131.581 15.9738 131.82 14.8672 132.297 13.9172C132.781 12.9672 133.46 12.2295 134.335 11.7041C135.211 11.1787 136.246 10.916 137.44 10.916C138.635 10.916 139.67 11.1787 140.545 11.7041C141.421 12.2295 142.097 12.9672 142.575 13.9172C143.058 14.8672 143.299 15.9738 143.299 17.2369C143.299 18.5 143.058 19.6039 142.575 20.5486C142.097 21.4932 141.421 22.2283 140.545 22.7537C139.67 23.2791 138.635 23.5419 137.44 23.5419ZM137.456 21.2332C138.104 21.2332 138.645 21.0554 139.08 20.6998C139.515 20.339 139.839 19.856 140.052 19.251C140.269 18.6459 140.378 17.9719 140.378 17.2289C140.378 16.4806 140.269 15.8039 140.052 15.1989C139.839 14.5886 139.515 14.103 139.08 13.7421C138.645 13.3812 138.104 13.2007 137.456 13.2007C136.793 13.2007 136.241 13.3812 135.8 13.7421C135.365 14.103 135.039 14.5886 134.822 15.1989C134.609 15.8039 134.502 16.4806 134.502 17.2289C134.502 17.9719 134.609 18.6459 134.822 19.251C135.039 19.856 135.365 20.339 135.8 20.6998C136.241 21.0554 136.793 21.2332 137.456 21.2332Z" fill="white"/>
<path d="M145.746 23.3033V11.0755H148.54V13.1135H148.667C148.89 12.4077 149.272 11.8637 149.813 11.4815C150.36 11.0941 150.984 10.9004 151.684 10.9004C151.844 10.9004 152.021 10.9083 152.218 10.9243C152.419 10.9349 152.587 10.9535 152.719 10.98V13.631C152.597 13.5885 152.403 13.5514 152.138 13.5195C151.878 13.4824 151.626 13.4638 151.382 13.4638C150.857 13.4638 150.384 13.5779 149.965 13.8061C149.55 14.029 149.225 14.3394 148.986 14.7375C148.747 15.1355 148.628 15.5946 148.628 16.1147V23.3033H145.746Z" fill="white"/>
<path d="M154.634 23.303V11.0752H157.388V13.153H157.532C157.786 12.4524 158.208 11.9058 158.797 11.513C159.386 11.115 160.089 10.916 160.907 10.916C161.735 10.916 162.433 11.1176 163.001 11.521C163.574 11.9191 163.977 12.4631 164.21 13.153H164.338C164.609 12.4737 165.065 11.9323 165.708 11.529C166.355 11.1203 167.122 10.916 168.008 10.916C169.133 10.916 170.051 11.2716 170.762 11.9827C171.473 12.6939 171.829 13.7315 171.829 15.0954V23.303H168.939V15.5412C168.939 14.7823 168.738 14.2277 168.334 13.8774C167.931 13.5218 167.437 13.344 166.854 13.344C166.158 13.344 165.615 13.5617 165.221 13.9968C164.834 14.4267 164.64 14.9866 164.64 15.6766V23.303H161.814V15.4218C161.814 14.7902 161.623 14.2861 161.241 13.9093C160.865 13.5325 160.371 13.344 159.761 13.344C159.346 13.344 158.97 13.4502 158.63 13.6625C158.29 13.8694 158.02 14.164 157.818 14.5461C157.616 14.9229 157.516 15.3634 157.516 15.8676V23.303H154.634Z" fill="white"/>
<path d="M184.417 14.3073L181.79 14.5939C181.716 14.3286 181.585 14.0791 181.4 13.8456C181.22 13.6121 180.976 13.4236 180.668 13.2803C180.36 13.1371 179.983 13.0654 179.537 13.0654C178.938 13.0654 178.433 13.1954 178.025 13.4555C177.621 13.7155 177.422 14.0526 177.428 14.4665C177.422 14.8221 177.552 15.1113 177.817 15.3342C178.088 15.5571 178.534 15.7402 179.155 15.8835L181.241 16.3293C182.398 16.5788 183.257 16.9742 183.82 17.5155C184.388 18.0569 184.674 18.7653 184.679 19.641C184.674 20.4106 184.449 21.0899 184.003 21.679C183.563 22.2628 182.949 22.7192 182.164 23.0483C181.379 23.3773 180.477 23.5419 179.457 23.5419C177.961 23.5419 176.756 23.2287 175.844 22.6025C174.931 21.9709 174.387 21.0926 174.212 19.9675L177.022 19.6968C177.149 20.2487 177.42 20.6653 177.834 20.9466C178.247 21.2279 178.786 21.3685 179.449 21.3685C180.134 21.3685 180.684 21.2279 181.098 20.9466C181.516 20.6653 181.726 20.3177 181.726 19.9037C181.726 19.5535 181.591 19.2642 181.32 19.036C181.055 18.8078 180.641 18.6327 180.078 18.5106L177.992 18.0727C176.82 17.8286 175.952 17.4173 175.39 16.8389C174.827 16.255 174.549 15.5173 174.554 14.6258C174.549 13.8721 174.752 13.2193 175.167 12.6674C175.586 12.1101 176.167 11.6802 176.91 11.3777C177.658 11.0699 178.521 10.916 179.497 10.916C180.93 10.916 182.058 11.2212 182.88 11.8315C183.709 12.4418 184.221 13.2671 184.417 14.3073Z" fill="white"/>
</g>
<defs>
<clipPath id="clip0_222_58">
<rect width="185" height="26.9636" fill="white" transform="translate(0 0.833496)"/>
</clipPath>
</defs>
</svg>
