<svg width="212" height="33" viewBox="0 0 212 33" fill="none" xmlns="http://www.w3.org/2000/svg">
<g clip-path="url(#clip0_16_188)">
<path d="M212 15.2068H86" stroke="white" stroke-width="1.5"/>
<path d="M6.29762 20.489H8.45329V27.4838C8.45329 28.2692 8.27573 28.9563 7.92052 29.5454C7.56872 30.1344 7.07591 30.5937 6.44199 30.9233C5.80808 31.2494 5.06963 31.4124 4.22662 31.4124C3.3803 31.4124 2.64018 31.2494 2.00627 30.9233C1.37236 30.5937 0.879504 30.1344 0.527706 29.5454C0.175899 28.9563 0 28.2692 0 27.4838V20.489H2.15563V27.2892C2.15563 27.6994 2.24026 28.0641 2.40952 28.3831C2.58211 28.7022 2.82439 28.9528 3.13636 29.1351C3.44834 29.3175 3.81176 29.4087 4.22662 29.4087C4.6448 29.4087 5.00823 29.3175 5.31688 29.1351C5.62886 28.9528 5.86948 28.7022 6.03874 28.3831C6.21133 28.0641 6.29762 27.6994 6.29762 27.2892V20.489ZM12.5882 20.489V31.2599H10.4673V20.489H12.5882ZM18.6347 23.1817V24.8647H14.0297V23.1817H18.6347ZM15.0752 21.2463H17.1959V28.7775C17.1959 28.9844 17.2258 29.1457 17.2855 29.2614C17.3453 29.3736 17.4283 29.4525 17.5344 29.4981C17.644 29.5436 17.7701 29.5664 17.9128 29.5664C18.0124 29.5664 18.112 29.5577 18.2115 29.5401C18.3111 29.5191 18.3874 29.5033 18.4405 29.4928L18.7741 31.16C18.6679 31.1951 18.5185 31.2353 18.3261 31.2809C18.1336 31.33 17.8995 31.3598 17.624 31.3703C17.113 31.3914 16.6649 31.3195 16.2799 31.1547C15.8983 30.9899 15.6012 30.734 15.3888 30.3868C15.1764 30.0398 15.0718 29.6015 15.0752 29.072V21.2463ZM20.2966 31.2599V23.1817H22.3526V24.5912H22.4323C22.5716 24.0898 22.8057 23.7112 23.1342 23.4552C23.4628 23.1957 23.8411 23.0661 24.2693 23.0661C24.3755 23.0661 24.49 23.0731 24.6128 23.087C24.7356 23.1011 24.8435 23.1204 24.9364 23.1449V25.1329C24.8368 25.1013 24.6991 25.0733 24.5231 25.0488C24.3472 25.0242 24.1863 25.0119 24.0403 25.0119C23.7283 25.0119 23.4495 25.0838 23.2039 25.2276C22.9616 25.3678 22.7691 25.5641 22.6265 25.8166C22.487 26.069 22.4173 26.3601 22.4173 26.6896V31.2599H20.2966ZM28.2747 31.4124C27.7868 31.4124 27.3521 31.323 26.9704 31.1442C26.5888 30.9619 26.2867 30.6936 26.0643 30.3396C25.8453 29.9819 25.7358 29.5366 25.7358 29.0037C25.7358 28.5549 25.8137 28.178 25.9697 27.873C26.1258 27.5679 26.3381 27.3225 26.6069 27.1367C26.8758 26.9509 27.1812 26.8106 27.523 26.7159C27.8681 26.6213 28.2299 26.5547 28.6083 26.5161C29.053 26.467 29.4115 26.4214 29.6836 26.3794C29.9558 26.3337 30.1533 26.2672 30.276 26.1795C30.3988 26.0919 30.4602 25.9621 30.4602 25.7903V25.7587C30.4602 25.4257 30.3606 25.1679 30.1616 24.9856C29.9657 24.8033 29.6869 24.7121 29.3252 24.7121C28.9435 24.7121 28.6398 24.8015 28.4141 24.9803C28.1885 25.1557 28.0391 25.3766 27.9661 25.643L26.0046 25.4747C26.1042 24.9839 26.3 24.5597 26.592 24.202C26.8841 23.8409 27.2608 23.5639 27.7221 23.371C28.1868 23.1748 28.7245 23.0766 29.3351 23.0766C29.7599 23.0766 30.1665 23.1291 30.5548 23.2343C30.9465 23.3395 31.2933 23.5025 31.5953 23.7235C31.9006 23.9443 32.1412 24.2283 32.3171 24.5754C32.4931 24.919 32.581 25.331 32.581 25.8114V31.2599H30.5697V30.1397H30.51C30.3872 30.3921 30.2229 30.6148 30.0171 30.8076C29.8114 30.997 29.5641 31.1459 29.2753 31.2546C28.9867 31.3598 28.653 31.4124 28.2747 31.4124ZM28.8821 29.8662C29.194 29.8662 29.4695 29.8013 29.7085 29.6716C29.9475 29.5384 30.135 29.3596 30.271 29.1351C30.4071 28.9108 30.4752 28.6566 30.4752 28.3726V27.5154C30.4088 27.5609 30.3175 27.603 30.2013 27.6415C30.0885 27.6766 29.9607 27.71 29.818 27.7415C29.6753 27.7695 29.5326 27.7959 29.3899 27.8203C29.2472 27.8414 29.1177 27.8607 29.0016 27.8782C28.7526 27.9167 28.5353 27.9782 28.3494 28.0623C28.1635 28.1464 28.0192 28.2604 27.9163 28.4041C27.8134 28.5444 27.7619 28.7197 27.7619 28.9301C27.7619 29.2351 27.8665 29.4683 28.0756 29.6295C28.288 29.7873 28.5569 29.8662 28.8821 29.8662ZM38.0716 31.2599V20.489H42.0941C42.8641 20.489 43.5213 20.6345 44.0656 20.9255C44.6131 21.213 45.0297 21.6215 45.3151 22.1509C45.6038 22.6769 45.7482 23.2957 45.7482 24.0075C45.7482 24.7227 45.6022 25.338 45.3102 25.8534C45.0181 26.3653 44.5949 26.758 44.0406 27.0315C43.4897 27.305 42.8226 27.4417 42.0393 27.4417H39.346V25.6115H41.6908C42.1024 25.6115 42.4443 25.5519 42.7164 25.4327C42.9886 25.3135 43.191 25.1347 43.3238 24.8962C43.4598 24.6578 43.5279 24.3615 43.5279 24.0075C43.5279 23.6498 43.4598 23.3483 43.3238 23.1028C43.191 22.8574 42.9869 22.6716 42.7114 22.5453C42.4393 22.4157 42.0958 22.3508 41.6809 22.3508H40.2272V31.2599H38.0716ZM43.5777 26.3583L46.1117 31.2599H43.732L41.2528 26.3583H43.5777ZM49.6927 31.4124C49.2048 31.4124 48.77 31.323 48.3883 31.1442C48.0067 30.9619 47.7046 30.6936 47.4823 30.3396C47.2632 29.9819 47.1537 29.5366 47.1537 29.0037C47.1537 28.5549 47.2317 28.178 47.3877 27.873C47.5437 27.5679 47.756 27.3225 48.0249 27.1367C48.2937 26.9509 48.5991 26.8106 48.9409 26.7159C49.2861 26.6213 49.6478 26.5547 50.0262 26.5161C50.4709 26.467 50.8294 26.4214 51.1015 26.3794C51.3737 26.3337 51.5712 26.2672 51.6939 26.1795C51.8168 26.0919 51.8781 25.9621 51.8781 25.7903V25.7587C51.8781 25.4257 51.7786 25.1679 51.5795 24.9856C51.3837 24.8033 51.1049 24.7121 50.7431 24.7121C50.3614 24.7121 50.0578 24.8015 49.832 24.9803C49.6064 25.1557 49.457 25.3766 49.384 25.643L47.4225 25.4747C47.5221 24.9839 47.7179 24.5597 48.01 24.202C48.302 23.8409 48.6787 23.5639 49.1401 23.371C49.6047 23.1748 50.1424 23.0766 50.7531 23.0766C51.1779 23.0766 51.5845 23.1291 51.9727 23.2343C52.3644 23.3395 52.7112 23.5025 53.0133 23.7235C53.3186 23.9443 53.5592 24.2283 53.7351 24.5754C53.911 24.919 53.999 25.331 53.999 25.8114V31.2599H51.9877V30.1397H51.928C51.8051 30.3921 51.6409 30.6148 51.4351 30.8076C51.2294 30.997 50.982 31.1459 50.6933 31.2546C50.4046 31.3598 50.0711 31.4124 49.6927 31.4124ZM50.3 29.8662C50.612 29.8662 50.8874 29.8013 51.1264 29.6716C51.3654 29.5384 51.5529 29.3596 51.689 29.1351C51.8251 28.9108 51.8931 28.6566 51.8931 28.3726V27.5154C51.8267 27.5609 51.7355 27.603 51.6193 27.6415C51.5065 27.6766 51.3787 27.71 51.236 27.7415C51.0932 27.7695 50.9506 27.7959 50.8078 27.8203C50.6651 27.8414 50.5356 27.8607 50.4195 27.8782C50.1705 27.9167 49.9532 27.9782 49.7673 28.0623C49.5815 28.1464 49.4371 28.2604 49.3342 28.4041C49.2313 28.5444 49.1799 28.7197 49.1799 28.9301C49.1799 29.2351 49.2844 29.4683 49.4935 29.6295C49.706 29.7873 49.9748 29.8662 50.3 29.8662ZM55.9246 31.2599V23.1817H57.9807V24.5912H58.0603C58.1998 24.0898 58.4337 23.7112 58.7624 23.4552C59.0909 23.1957 59.4693 23.0661 59.8974 23.0661C60.0036 23.0661 60.1181 23.0731 60.2409 23.087C60.3637 23.1011 60.4716 23.1204 60.5645 23.1449V25.1329C60.465 25.1013 60.3272 25.0733 60.1513 25.0488C59.9754 25.0242 59.8144 25.0119 59.6684 25.0119C59.3564 25.0119 59.0776 25.0838 58.832 25.2276C58.5898 25.3678 58.3973 25.5641 58.2545 25.8166C58.1152 26.069 58.0455 26.3601 58.0455 26.6896V31.2599H55.9246ZM65.0702 31.4176C64.2837 31.4176 63.6067 31.2494 63.0391 30.9128C62.4749 30.5727 62.0401 30.0923 61.7348 29.4718C61.4294 28.8477 61.2768 28.1096 61.2768 27.2576C61.2768 26.4267 61.4294 25.6974 61.7348 25.0698C62.0401 24.4422 62.4699 23.9531 63.0241 23.6025C63.5817 23.2519 64.2356 23.0766 64.9856 23.0766C65.4901 23.0766 65.9597 23.1625 66.3945 23.3343C66.8326 23.5025 67.2142 23.7567 67.5396 24.0969C67.8681 24.4369 68.1236 24.8647 68.3062 25.3801C68.4887 25.892 68.58 26.4915 68.58 27.1787V27.7941H62.1231V26.4056H66.5836C66.5836 26.0831 66.5173 25.7973 66.3846 25.5483C66.2518 25.2994 66.0676 25.1048 65.832 24.9646C65.5996 24.8208 65.3291 24.749 65.0205 24.749C64.6985 24.749 64.4131 24.8279 64.1642 24.9856C63.9186 25.1399 63.7261 25.3486 63.5867 25.6115C63.4473 25.8709 63.3759 26.1602 63.3726 26.4793V27.7994C63.3726 28.199 63.4423 28.5444 63.5817 28.8354C63.7244 29.1264 63.9252 29.3508 64.1841 29.5086C64.443 29.6664 64.75 29.7452 65.1051 29.7452C65.3407 29.7452 65.5565 29.7101 65.7523 29.64C65.9481 29.5699 66.1158 29.4647 66.2551 29.3245C66.3945 29.1843 66.5007 29.0125 66.5737 28.8091L68.5352 28.9458C68.4357 29.4437 68.2315 29.8785 67.9228 30.2501C67.6175 30.6183 67.2225 30.9058 66.738 31.1127C66.2568 31.316 65.7008 31.4176 65.0702 31.4176Z" fill="white"/>
<path d="M34.5596 0.570159V11.7735H33.089L27.6985 3.55698H27.6001V11.7735H26V0.570159H27.481L32.8767 8.79756H32.9751V0.570159H34.5596ZM40.4114 11.943C39.6658 11.943 39.015 11.7625 38.4593 11.4015C37.9035 11.0404 37.4719 10.5354 37.1646 9.88617C36.8574 9.23706 36.7038 8.47853 36.7038 7.61052C36.7038 6.73891 36.8574 5.97671 37.1646 5.3239C37.4719 4.67111 37.9035 4.16419 38.4593 3.80314C39.015 3.4421 39.6658 3.26158 40.4114 3.26158C41.1571 3.26158 41.8078 3.4421 42.3636 3.80314C42.9194 4.16419 43.3509 4.67111 43.6582 5.3239C43.9654 5.97671 44.119 6.73891 44.119 7.61052C44.119 8.47853 43.9654 9.23706 43.6582 9.88617C43.3509 10.5354 42.9194 11.0404 42.3636 11.4015C41.8078 11.7625 41.1571 11.943 40.4114 11.943ZM40.4165 10.57C40.8999 10.57 41.3003 10.4351 41.618 10.1651C41.9355 9.8953 42.1703 9.53611 42.3222 9.08749C42.4775 8.63896 42.5552 8.1448 42.5552 7.60505C42.5552 7.06896 42.4775 6.57662 42.3222 6.12805C42.1703 5.67583 41.9355 5.31296 41.618 5.03945C41.3003 4.76593 40.8999 4.62917 40.4165 4.62917C39.9299 4.62917 39.5259 4.76593 39.2049 5.03945C38.8873 5.31296 38.6508 5.67583 38.4954 6.12805C38.3436 6.57662 38.2677 7.06896 38.2677 7.60505C38.2677 8.1448 38.3436 8.63896 38.4954 9.08749C38.6508 9.53611 38.8873 9.8953 39.2049 10.1651C39.5259 10.4351 39.9299 10.57 40.4165 10.57ZM47.159 11.8774C46.8759 11.8774 46.6326 11.7716 46.4289 11.5601C46.2252 11.3449 46.1233 11.086 46.1233 10.7833C46.1233 10.4843 46.2252 10.229 46.4289 10.0175C46.6326 9.80231 46.8759 9.69472 47.159 9.69472C47.4421 9.69472 47.6855 9.80231 47.8891 10.0175C48.0928 10.229 48.1946 10.4843 48.1946 10.7833C48.1946 10.9839 48.1464 11.1681 48.0497 11.3358C47.9565 11.5 47.8322 11.6312 47.6769 11.7297C47.5215 11.8281 47.3489 11.8774 47.159 11.8774ZM54.8766 11.7735L59.5059 2.10186V2.0198H54.1516V0.570159H61.163V2.06903L56.5492 11.7735H54.8766ZM66.6251 11.9266C65.8829 11.9266 65.227 11.7917 64.6574 11.5219C64.0912 11.2519 63.6476 10.88 63.3265 10.4059C63.0054 9.9318 62.8467 9.39202 62.8501 8.78661C62.8467 8.31253 62.9381 7.87674 63.1246 7.47923C63.3144 7.07807 63.5716 6.74438 63.8961 6.47816C64.2206 6.20828 64.5832 6.03688 64.9836 5.96394V5.8983C64.4554 5.76336 64.0325 5.46431 63.7149 5.00115C63.3973 4.538 63.2402 4.00554 63.2437 3.40381C63.2402 2.83124 63.3835 2.32068 63.6734 1.8721C63.9669 1.41988 64.3691 1.06432 64.88 0.805384C65.3909 0.54645 65.9726 0.416992 66.6251 0.416992C67.2707 0.416992 67.8471 0.548275 68.3546 0.81085C68.8655 1.06978 69.2677 1.42536 69.5611 1.87758C69.8546 2.32614 70.003 2.83489 70.0064 3.40381C70.003 4.00554 69.8407 4.538 69.5197 5.00115C69.1987 5.46431 68.7809 5.76336 68.2666 5.8983V5.96394C68.6636 6.03688 69.0209 6.20828 69.3384 6.47816C69.6595 6.74438 69.915 7.07807 70.1048 7.47923C70.2982 7.87674 70.3965 8.31253 70.4 8.78661C70.3965 9.39202 70.2343 9.9318 69.9132 10.4059C69.5922 10.88 69.1468 11.2519 68.5773 11.5219C68.0111 11.7917 67.3604 11.9266 66.6251 11.9266ZM66.6251 10.5427C67.0635 10.5427 67.4432 10.466 67.7643 10.3129C68.0853 10.156 68.3339 9.9391 68.5099 9.66186C68.686 9.38106 68.7757 9.0529 68.7792 8.67729C68.7757 8.28698 68.6791 7.94239 68.4893 7.64334C68.3029 7.3443 68.0491 7.10907 67.7281 6.93766C67.407 6.76626 67.0393 6.68056 66.6251 6.68056C66.2074 6.68056 65.8363 6.76626 65.5118 6.93766C65.1872 7.10907 64.9318 7.3443 64.7454 7.64334C64.559 7.94239 64.4675 8.28698 64.4709 8.67729C64.4675 9.0529 64.5521 9.38106 64.7247 9.66186C64.9007 9.9391 65.151 10.156 65.4755 10.3129C65.8 10.466 66.1832 10.5427 66.6251 10.5427ZM66.6251 5.32938C66.9772 5.32938 67.2896 5.25461 67.5623 5.1051C67.8351 4.95557 68.0491 4.7477 68.2045 4.48147C68.3632 4.21525 68.4444 3.90344 68.4478 3.54604C68.4444 3.19594 68.365 2.88959 68.2096 2.62702C68.0577 2.36444 67.8454 2.16204 67.5727 2.0198C67.2999 1.87393 66.9841 1.80099 66.6251 1.80099C66.2591 1.80099 65.9381 1.87393 65.6619 2.0198C65.3892 2.16204 65.1769 2.36444 65.025 2.62702C64.8731 2.88959 64.7989 3.19594 64.8023 3.54604C64.7989 3.90344 64.8748 4.21525 65.0302 4.48147C65.1855 4.7477 65.3996 4.95557 65.6723 5.1051C65.9485 5.25461 66.266 5.32938 66.6251 5.32938Z" fill="white"/>
</g>
<defs>
<clipPath id="clip0_16_188">
<rect width="212" height="31.6925" fill="white" transform="translate(0 0.416992)"/>
</clipPath>
</defs>
</svg>
