<svg width="25" height="22" viewBox="0 0 25 22" fill="none" xmlns="http://www.w3.org/2000/svg">
<path d="M1.63875 12.5707L1.72272 12.4424L6.78674 4.74043C6.86075 4.62768 7.03474 4.63933 7.09073 4.76182C7.93674 6.60515 8.66673 8.89766 8.32475 10.3249C8.17875 10.9121 7.77875 11.7074 7.32872 12.4424C7.27075 12.5493 7.20675 12.6543 7.13873 12.7554C7.10673 12.8021 7.05273 12.8293 6.99472 12.8293H1.78673C1.64673 12.8293 1.56473 12.6816 1.63875 12.5707Z" fill="white"/>
<path d="M24.211 14.0019V15.221C24.211 15.291 24.167 15.3532 24.103 15.3804C23.711 15.5438 22.369 16.1427 21.811 16.8971C20.387 18.8241 19.299 21.5793 16.867 21.5793H6.72095C3.12498 21.5793 0.210968 18.7366 0.210968 15.2288V15.116C0.210968 15.0227 0.288951 14.9469 0.384959 14.9469H6.04099C6.15296 14.9469 6.23495 15.048 6.22498 15.1549C6.18496 15.5127 6.25298 15.8782 6.42697 16.2107C6.76296 16.8738 7.45896 17.288 8.21095 17.288H11.011V15.1627H8.24296C8.10097 15.1627 8.01699 15.0032 8.09898 14.8905C8.12896 14.8457 8.16299 14.7991 8.19896 14.7466C8.46098 14.3849 8.83497 13.823 9.20698 13.1832C9.46098 12.7516 9.70695 12.2907 9.90497 11.828C9.94499 11.7444 9.97696 11.6588 10.009 11.5752C10.063 11.4274 10.119 11.2893 10.159 11.1513C10.199 11.0346 10.231 10.9121 10.263 10.7974C10.357 10.4046 10.397 9.9885 10.397 9.55685C10.397 9.38769 10.389 9.21073 10.373 9.04157C10.365 8.85686 10.341 8.6721 10.317 8.48739C10.301 8.32406 10.271 8.16266 10.239 7.9935C10.199 7.74656 10.143 7.50159 10.079 7.2546L10.057 7.1613C10.009 6.99211 9.96897 6.83074 9.91299 6.66159C9.75496 6.13072 9.57299 5.61352 9.38097 5.12936C9.31097 4.93684 9.23096 4.75213 9.15095 4.56742C9.03299 4.28936 8.91296 4.03659 8.80297 3.7974C8.74698 3.6885 8.69898 3.58933 8.65098 3.48823C8.59698 3.3735 8.54099 3.25878 8.48497 3.14992C8.44498 3.0663 8.39896 2.98852 8.36696 2.91073L8.02497 2.29629C7.97697 2.21267 8.05698 2.1135 8.15096 2.13879L10.291 2.70266H10.297C10.301 2.70266 10.303 2.70463 10.305 2.70463L10.587 2.78045L10.897 2.86603L11.011 2.89711V1.66046C11.011 1.0635 11.503 0.579346 12.111 0.579346C12.415 0.579346 12.691 0.699902 12.889 0.896276C13.087 1.09269 13.211 1.36102 13.211 1.66046V3.49603L13.439 3.55822C13.457 3.56409 13.475 3.57185 13.491 3.5835C13.547 3.62435 13.627 3.6846 13.729 3.75853C13.809 3.82072 13.895 3.89657 13.999 3.97436C14.205 4.13572 14.451 4.34379 14.721 4.58297C14.793 4.64323 14.863 4.70546 14.927 4.76769C15.275 5.08269 15.665 5.45212 16.037 5.86046C16.141 5.97519 16.243 6.09185 16.347 6.21433C16.451 6.33879 16.561 6.46128 16.657 6.5838C16.783 6.74713 16.919 6.91629 17.037 7.09324C17.093 7.17686 17.157 7.2624 17.211 7.34602C17.363 7.5696 17.497 7.80103 17.625 8.03241C17.679 8.13935 17.735 8.256 17.783 8.37073C17.925 8.6799 18.037 8.9949 18.109 9.3099C18.131 9.37796 18.147 9.45185 18.155 9.51797V9.53353C18.179 9.62683 18.187 9.726 18.195 9.82711C18.227 10.1499 18.211 10.4727 18.139 10.7974C18.109 10.9355 18.069 11.0657 18.021 11.2038C17.973 11.336 17.925 11.4741 17.863 11.6043C17.743 11.8746 17.601 12.1449 17.433 12.3977C17.379 12.491 17.315 12.5902 17.251 12.6835C17.181 12.7827 17.109 12.876 17.045 12.9674C16.957 13.0841 16.863 13.2066 16.767 13.3155C16.681 13.4302 16.593 13.5449 16.497 13.646C16.363 13.7996 16.235 13.9455 16.101 14.0855C16.021 14.1768 15.935 14.2702 15.847 14.3538C15.761 14.4471 15.673 14.5307 15.593 14.6085C15.459 14.7388 15.347 14.8399 15.253 14.9235L15.033 15.1199C15.001 15.1471 14.959 15.1627 14.915 15.1627H13.211V17.288H15.355C15.835 17.288 16.291 17.1227 16.659 16.8193C16.785 16.7124 17.335 16.2496 17.985 15.5516C18.007 15.5282 18.035 15.5107 18.067 15.503L23.989 13.8385C24.099 13.8074 24.211 13.8891 24.211 14.0019Z" fill="white"/>
</svg>
