<svg width="57" height="21" viewBox="0 0 57 21" fill="none" xmlns="http://www.w3.org/2000/svg">
<path d="M6.74131 15.5355C13.372 15.5355 16.9998 10.0406 16.9998 5.27699C16.9998 5.12252 16.9964 4.96461 16.9895 4.81014C17.6952 4.29978 18.3042 3.66763 18.7879 2.9434C18.1307 3.23582 17.4329 3.42679 16.7183 3.5098C17.4707 3.05882 18.034 2.35034 18.3039 1.51571C17.5961 1.93518 16.822 2.23108 16.0149 2.39072C15.4711 1.81288 14.7521 1.43029 13.969 1.30208C13.1859 1.17388 12.3824 1.30721 11.6827 1.68146C10.983 2.05571 10.4261 2.65003 10.0981 3.37255C9.77001 4.09506 9.68911 4.90552 9.86787 5.67862C8.43469 5.6067 7.03262 5.2344 5.75255 4.58585C4.47248 3.9373 3.34299 3.02698 2.43731 1.91391C1.977 2.70755 1.83614 3.64668 2.04337 4.54044C2.2506 5.4342 2.79036 6.21553 3.55296 6.72562C2.98045 6.70744 2.42047 6.5533 1.91931 6.27593V6.32055C1.91879 7.15341 2.20672 7.96075 2.73415 8.60533C3.26158 9.24991 3.99596 9.69195 4.81244 9.8563C4.2821 10.0014 3.72548 10.0225 3.18565 9.91809C3.41605 10.6344 3.86432 11.2608 4.4679 11.7101C5.07148 12.1593 5.80025 12.4089 6.55251 12.424C5.2754 13.4272 3.69779 13.9713 2.07378 13.9688C1.78578 13.9683 1.49806 13.9507 1.21216 13.9159C2.86198 14.9743 4.78116 15.5365 6.74131 15.5355Z" fill="#B2B2B2"/>
<path d="M45.24 8.43286C44.67 8.43286 44.22 8.93286 44.22 9.54286C44.22 10.1529 44.68 10.6529 45.24 10.6529C45.81 10.6529 46.26 10.1529 46.26 9.54286C46.27 8.93286 45.81 8.43286 45.24 8.43286ZM48.89 8.43286C48.32 8.43286 47.87 8.93286 47.87 9.54286C47.87 10.1529 48.33 10.6529 48.89 10.6529C49.46 10.6529 49.91 10.1529 49.91 9.54286C49.91 8.93286 49.46 8.43286 48.89 8.43286Z" fill="#B2B2B2"/>
<path d="M53.7499 0.0424805H40.3499C39.2199 0.0424805 38.2999 0.96248 38.2999 2.10248V15.6225C38.2999 16.7625 39.2199 17.6825 40.3499 17.6825H51.6899L51.1599 15.8325L52.4399 17.0225L53.6499 18.1425L55.7999 20.0425V2.10248C55.7999 0.96248 54.8799 0.0424805 53.7499 0.0424805ZM49.8899 13.1025C49.8899 13.1025 49.5299 12.6725 49.2299 12.2925C50.5399 11.9225 51.0399 11.1025 51.0399 11.1025C50.6299 11.3725 50.2399 11.5625 49.8899 11.6925C49.3899 11.9025 48.9099 12.0425 48.4399 12.1225C47.4799 12.3025 46.5999 12.2525 45.8499 12.1125C45.2799 12.0025 44.7899 11.8425 44.3799 11.6825C44.1499 11.5925 43.8999 11.4825 43.6499 11.3425C43.6199 11.3225 43.5899 11.3125 43.5599 11.2925C43.5399 11.2825 43.5299 11.2725 43.5199 11.2625C43.3399 11.1625 43.2399 11.0925 43.2399 11.0925C43.2399 11.0925 43.7199 11.8925 44.9899 12.2725C44.6899 12.6525 44.3199 13.1025 44.3199 13.1025C42.1099 13.0325 41.2699 11.5825 41.2699 11.5825C41.2699 8.36248 42.7099 5.75248 42.7099 5.75248C44.1499 4.67248 45.5199 4.70248 45.5199 4.70248L45.6199 4.82248C43.8199 5.34248 42.9899 6.13248 42.9899 6.13248C42.9899 6.13248 43.2099 6.01248 43.5799 5.84248C44.6499 5.37248 45.4999 5.24248 45.8499 5.21248C45.9099 5.20248 45.9599 5.19248 46.0199 5.19248C46.6299 5.11248 47.3199 5.09248 48.0399 5.17248C48.9899 5.28248 50.0099 5.56248 51.0499 6.13248C51.0499 6.13248 50.2599 5.38248 48.5599 4.86248L48.6999 4.70248C48.6999 4.70248 50.0699 4.67248 51.5099 5.75248C51.5099 5.75248 52.9499 8.36248 52.9499 11.5825C52.9499 11.5825 52.0999 13.0325 49.8899 13.1025V13.1025Z" fill="#B2B2B2"/>
</svg>
