<svg width="195" height="45" viewBox="0 0 195 45" fill="none" xmlns="http://www.w3.org/2000/svg">
<g clip-path="url(#clip0_222_201)">
<path fill-rule="evenodd" clip-rule="evenodd" d="M22.6274 27.8388C23.553 27.0696 24.49 26.2169 25.4172 25.2898C26.3443 24.3626 27.1971 23.4256 27.9662 22.5C27.1971 21.5745 26.3443 20.6375 25.4172 19.7103C24.49 18.7831 23.553 17.9304 22.6274 17.1612C21.7019 17.9304 20.7649 18.7831 19.8377 19.7103C18.9105 20.6375 18.0578 21.5745 17.2886 22.5C18.0578 23.4256 18.9105 24.3626 19.8377 25.2898C20.7649 26.2169 21.7019 27.0696 22.6274 27.8388ZM24.4652 29.269C25.3234 28.538 26.1822 27.7458 27.0277 26.9003C27.8732 26.0547 28.6654 25.1959 29.3965 24.3378C30.305 25.5905 31.0401 26.7936 31.5775 27.8898C32.1714 29.1013 32.4945 30.1235 32.5769 30.903C32.6606 31.6949 32.4835 32.0503 32.3306 32.2032C32.1778 32.3561 31.8223 32.5332 31.0304 32.4495C30.251 32.3671 29.2287 32.0439 28.0172 31.4501C26.921 30.9127 25.7179 30.1776 24.4652 29.269ZM22.6274 30.743C24.1506 31.889 25.6397 32.8212 27.0147 33.4952C28.3555 34.1525 29.6468 34.5936 30.7911 34.7145C31.9229 34.8341 33.1013 34.6536 33.9412 33.8137C34.781 32.9739 34.9615 31.7955 34.8419 30.6636C34.721 29.5194 34.2799 28.2281 33.6226 26.8873C32.9486 25.5123 32.0164 24.0232 30.8704 22.5C32.0164 20.9769 32.9486 19.4878 33.6226 18.1127C34.2799 16.772 34.721 15.4806 34.8419 14.3364C34.9615 13.2046 34.781 12.0262 33.9411 11.1863C33.1013 10.3464 31.9229 10.1659 30.7911 10.2855C29.6468 10.4065 28.3555 10.8476 27.0147 11.5048C25.6397 12.1789 24.1506 13.111 22.6274 14.257C21.1043 13.111 19.6152 12.1789 18.2402 11.5048C16.8994 10.8476 15.6081 10.4065 14.4638 10.2855C13.332 10.1659 12.1536 10.3464 11.3137 11.1863C10.4739 12.0262 10.2933 13.2046 10.413 14.3364C10.5339 15.4806 10.975 16.772 11.6322 18.1127C12.3063 19.4878 13.2385 20.9769 14.3845 22.5C13.2385 24.0232 12.3063 25.5123 11.6322 26.8873C10.975 28.2281 10.5339 29.5194 10.413 30.6636C10.2933 31.7955 10.4739 32.9739 11.3137 33.8137C12.1536 34.6536 13.332 34.8341 14.4638 34.7145C15.6081 34.5936 16.8994 34.1525 18.2401 33.4952C19.6152 32.8212 21.1043 31.889 22.6274 30.743ZM20.7897 29.269C19.9315 28.538 19.0727 27.7458 18.2272 26.9003C17.3816 26.0547 16.5895 25.1959 15.8584 24.3378C14.9499 25.5905 14.2147 26.7936 13.6774 27.8898C13.0835 29.1013 12.7604 30.1235 12.678 30.903C12.5943 31.6949 12.7714 32.0503 12.9243 32.2032C13.0771 32.3561 13.4326 32.5332 14.2244 32.4495C15.0039 32.3671 16.0262 32.0439 17.2376 31.4501C18.3339 30.9127 19.537 30.1776 20.7897 29.269ZM15.8584 20.6623C16.5895 19.8041 17.3816 18.9453 18.2272 18.0998C19.0727 17.2542 19.9315 16.4621 20.7897 15.731C19.537 14.8225 18.3339 14.0873 17.2376 13.55C16.0262 12.9561 15.0039 12.6329 14.2244 12.5506C13.4326 12.4669 13.0771 12.644 12.9243 12.7968C12.7714 12.9497 12.5943 13.3051 12.678 14.097C12.7604 14.8765 13.0835 15.8988 13.6774 17.1102C14.2147 18.2065 14.9499 19.4095 15.8584 20.6623ZM24.4652 15.731C25.3234 16.4621 26.1822 17.2542 27.0277 18.0998C27.8732 18.9453 28.6654 19.8041 29.3965 20.6623C30.305 19.4095 31.0401 18.2065 31.5775 17.1102C32.1714 15.8988 32.4945 14.8765 32.5769 14.097C32.6606 13.3051 32.4835 12.9497 32.3306 12.7968C32.1778 12.644 31.8223 12.4669 31.0304 12.5506C30.251 12.6329 29.2287 12.9561 28.0172 13.55C26.921 14.0873 25.7179 14.8225 24.4652 15.731Z" fill="white"/>
<g filter="url(#filter0_d_222_201)">
<mask id="path-2-outside-1_222_201" maskUnits="userSpaceOnUse" x="44.2548" y="10.8755" width="152" height="24" fill="black">
<rect fill="white" x="44.2548" y="10.8755" width="152" height="24"/>
<path d="M59.7174 17.6365H56.7207C56.6352 17.145 56.4777 16.7097 56.248 16.3304C56.0183 15.9458 55.7325 15.62 55.3906 15.3529C55.0488 15.0858 54.6588 14.8855 54.2208 14.752C53.7881 14.6131 53.3207 14.5437 52.8186 14.5437C51.9266 14.5437 51.136 14.768 50.4469 15.2167C49.7578 15.6601 49.2183 16.3117 48.8284 17.1718C48.4385 18.0264 48.2435 19.0707 48.2435 20.3046C48.2435 21.5599 48.4385 22.6176 48.8284 23.4776C49.2237 24.3323 49.7632 24.9786 50.4469 25.4166C51.136 25.8493 51.9239 26.0656 52.8106 26.0656C53.302 26.0656 53.7614 26.0015 54.1888 25.8733C54.6214 25.7398 55.0087 25.5448 55.3506 25.2884C55.6978 25.032 55.9889 24.7169 56.2239 24.3429C56.4643 23.969 56.6299 23.5417 56.7207 23.0609L59.7174 23.077C59.6052 23.8568 59.3622 24.5887 58.9882 25.2724C58.6197 25.9561 58.1362 26.5597 57.538 27.0832C56.9397 27.6014 56.24 28.0073 55.4387 28.3011C54.6375 28.5896 53.7481 28.7338 52.7705 28.7338C51.3283 28.7338 50.041 28.3999 48.9085 27.7322C47.7761 27.0645 46.884 26.1003 46.2323 24.8397C45.5807 23.5791 45.2548 22.0674 45.2548 20.3046C45.2548 18.5365 45.5833 17.0249 46.2404 15.7696C46.8974 14.5089 47.7921 13.5448 48.9245 12.8771C50.057 12.2093 51.339 11.8755 52.7705 11.8755C53.684 11.8755 54.5333 12.0037 55.3185 12.2601C56.1037 12.5165 56.8035 12.8931 57.4178 13.3899C58.0321 13.8813 58.5369 14.4849 58.9322 15.2007C59.3328 15.9111 59.5945 16.7231 59.7174 17.6365Z"/>
<path d="M62.3114 28.5094V16.2022H65.1238V18.2534H65.252C65.4764 17.543 65.861 16.9955 66.4058 16.6109C66.956 16.2209 67.5837 16.026 68.2888 16.026C68.449 16.026 68.6279 16.034 68.8256 16.05C69.0286 16.0607 69.1968 16.0794 69.3304 16.1061V18.7743C69.2075 18.7315 69.0125 18.6941 68.7455 18.6621C68.4837 18.6247 68.23 18.606 67.9843 18.606C67.4555 18.606 66.98 18.7208 66.5581 18.9505C66.1414 19.1749 65.8129 19.4874 65.5725 19.888C65.3321 20.2886 65.212 20.7507 65.212 21.2742V28.5094H62.3114Z"/>
<path d="M73.4348 33.1246C73.0395 33.1246 72.6736 33.0926 72.3371 33.0285C72.0059 32.9697 71.7415 32.9003 71.5438 32.8202L72.2169 30.5606C72.6389 30.6835 73.0155 30.7423 73.3466 30.7369C73.6778 30.7316 73.9689 30.6274 74.22 30.4244C74.4764 30.2268 74.6927 29.8956 74.869 29.4309L75.1174 28.7658L70.6544 16.2022H73.7312L76.5677 25.4967H76.6959L79.5403 16.2022H82.6251L77.6974 29.9998C77.4677 30.6514 77.1633 31.2097 76.784 31.6744C76.4047 32.1444 75.94 32.5023 75.3898 32.7481C74.845 32.9991 74.1933 33.1246 73.4348 33.1246Z"/>
<path d="M94.3594 19.4553L91.7153 19.7438C91.6405 19.4767 91.5096 19.2256 91.3227 18.9906C91.1411 18.7556 90.8954 18.5659 90.5855 18.4217C90.2757 18.2775 89.8965 18.2054 89.4478 18.2054C88.8442 18.2054 88.3367 18.3362 87.9254 18.598C87.5194 18.8597 87.3191 19.1989 87.3244 19.6156C87.3191 19.9735 87.45 20.2646 87.7171 20.4889C87.9895 20.7133 88.4382 20.8976 89.0632 21.0418L91.1624 21.4905C92.3269 21.7415 93.1923 22.1395 93.7585 22.6844C94.33 23.2292 94.6185 23.9423 94.6238 24.8237C94.6185 25.5982 94.3915 26.282 93.9428 26.8749C93.4994 27.4625 92.8825 27.9219 92.0919 28.253C91.3013 28.5842 90.3932 28.7498 89.3676 28.7498C87.8613 28.7498 86.6487 28.4347 85.73 27.8043C84.8112 27.1687 84.2637 26.2846 84.0874 25.1522L86.9158 24.8798C87.044 25.4353 87.3164 25.8546 87.7331 26.1377C88.1497 26.4208 88.6919 26.5624 89.3596 26.5624C90.0487 26.5624 90.6016 26.4208 91.0182 26.1377C91.4402 25.8546 91.6512 25.5048 91.6512 25.0881C91.6512 24.7356 91.515 24.4444 91.2426 24.2147C90.9755 23.985 90.5588 23.8088 89.9926 23.6859L87.8933 23.2452C86.7128 22.9995 85.8395 22.5855 85.2732 22.0033C84.707 21.4157 84.4266 20.6732 84.4319 19.7758C84.4266 19.0173 84.6322 18.3603 85.0489 17.8047C85.4709 17.2439 86.0558 16.8112 86.8036 16.5067C87.5568 16.1969 88.4248 16.042 89.4077 16.042C90.8499 16.042 91.9851 16.3491 92.813 16.9634C93.6463 17.5777 94.1618 18.4083 94.3594 19.4553Z"/>
<path d="M103.161 16.2022V18.4457H96.0861V16.2022H103.161ZM97.8328 13.2536H100.733V24.8077C100.733 25.1976 100.792 25.4967 100.91 25.7051C101.032 25.908 101.193 26.0469 101.39 26.1217C101.588 26.1965 101.807 26.2339 102.047 26.2339C102.229 26.2339 102.395 26.2205 102.544 26.1938C102.699 26.1671 102.817 26.1431 102.897 26.1217L103.386 28.3892C103.231 28.4427 103.009 28.5014 102.72 28.5655C102.437 28.6296 102.09 28.667 101.679 28.6777C100.952 28.6991 100.298 28.5896 99.7158 28.3492C99.1335 28.1035 98.6715 27.7242 98.3296 27.2114C97.9931 26.6986 97.8275 26.0576 97.8328 25.2884V13.2536Z"/>
<path d="M109.128 28.7578C108.349 28.7578 107.646 28.6189 107.021 28.3412C106.402 28.0581 105.91 27.6414 105.547 27.0912C105.189 26.541 105.01 25.8626 105.01 25.0561C105.01 24.3616 105.138 23.7874 105.395 23.3334C105.651 22.8793 106.001 22.5161 106.444 22.2437C106.888 21.9712 107.387 21.7656 107.943 21.6267C108.503 21.4825 109.083 21.3783 109.681 21.3142C110.402 21.2394 110.987 21.1727 111.436 21.1139C111.885 21.0498 112.211 20.9537 112.414 20.8255C112.622 20.6919 112.726 20.4863 112.726 20.2085V20.1604C112.726 19.5568 112.547 19.0894 112.189 18.7582C111.831 18.427 111.316 18.2615 110.643 18.2615C109.932 18.2615 109.369 18.4164 108.952 18.7262C108.541 19.036 108.263 19.4019 108.119 19.8239L105.411 19.4393C105.624 18.6915 105.977 18.0665 106.468 17.5644C106.96 17.0569 107.561 16.6776 108.271 16.4266C108.982 16.1702 109.767 16.042 110.627 16.042C111.22 16.042 111.81 16.1114 112.398 16.2503C112.985 16.3892 113.522 16.6189 114.008 16.9394C114.494 17.2545 114.884 17.6846 115.178 18.2294C115.477 18.7743 115.627 19.4553 115.627 20.2726V28.5094H112.838V26.8188H112.742C112.566 27.1607 112.317 27.4812 111.997 27.7803C111.682 28.0741 111.284 28.3118 110.803 28.4934C110.328 28.6697 109.769 28.7578 109.128 28.7578ZM109.882 26.6265C110.464 26.6265 110.969 26.5117 111.396 26.282C111.823 26.0469 112.152 25.7371 112.382 25.3525C112.617 24.9679 112.734 24.5486 112.734 24.0946V22.6443C112.643 22.7191 112.488 22.7885 112.269 22.8526C112.056 22.9167 111.815 22.9728 111.548 23.0209C111.281 23.069 111.017 23.1117 110.755 23.1491C110.493 23.1865 110.266 23.2185 110.074 23.2452C109.641 23.304 109.254 23.4001 108.912 23.5337C108.57 23.6672 108.301 23.8542 108.103 24.0946C107.905 24.3296 107.806 24.6341 107.806 25.008C107.806 25.5421 108.001 25.9454 108.391 26.2179C108.781 26.4903 109.278 26.6265 109.882 26.6265Z"/>
<path d="M121.444 12.0998V28.5094H118.543V12.0998H121.444Z"/>
<path d="M130.151 28.5094V12.0998H140.664V14.5917H133.124V19.0467H139.943V21.5386H133.124V28.5094H130.151Z"/>
<path d="M147.709 28.7498C146.507 28.7498 145.465 28.4854 144.584 27.9566C143.702 27.4278 143.019 26.6879 142.533 25.7371C142.052 24.7863 141.811 23.6752 141.811 22.4039C141.811 21.1326 142.052 20.0189 142.533 19.0627C143.019 18.1065 143.702 17.3641 144.584 16.8352C145.465 16.3064 146.507 16.042 147.709 16.042C148.911 16.042 149.952 16.3064 150.834 16.8352C151.715 17.3641 152.396 18.1065 152.877 19.0627C153.363 20.0189 153.606 21.1326 153.606 22.4039C153.606 23.6752 153.363 24.7863 152.877 25.7371C152.396 26.6879 151.715 27.4278 150.834 27.9566C149.952 28.4854 148.911 28.7498 147.709 28.7498ZM147.725 26.4262C148.376 26.4262 148.921 26.2472 149.359 25.8894C149.797 25.5261 150.123 25.04 150.337 24.4311C150.556 23.8221 150.665 23.1437 150.665 22.3959C150.665 21.6427 150.556 20.9617 150.337 20.3527C150.123 19.7384 149.797 19.2497 149.359 18.8864C148.921 18.5232 148.376 18.3416 147.725 18.3416C147.057 18.3416 146.501 18.5232 146.058 18.8864C145.62 19.2497 145.292 19.7384 145.073 20.3527C144.859 20.9617 144.752 21.6427 144.752 22.3959C144.752 23.1437 144.859 23.8221 145.073 24.4311C145.292 25.04 145.62 25.5261 146.058 25.8894C146.501 26.2472 147.057 26.4262 147.725 26.4262Z"/>
<path d="M156.068 28.5094V16.2022H158.88V18.2534H159.008C159.233 17.543 159.617 16.9955 160.162 16.6109C160.712 16.2209 161.34 16.026 162.045 16.026C162.205 16.026 162.384 16.034 162.582 16.05C162.785 16.0607 162.953 16.0794 163.087 16.1061V18.7743C162.964 18.7315 162.769 18.6941 162.502 18.6621C162.24 18.6247 161.986 18.606 161.741 18.606C161.212 18.606 160.736 18.7208 160.314 18.9505C159.898 19.1749 159.569 19.4874 159.329 19.888C159.088 20.2886 158.968 20.7507 158.968 21.2742V28.5094H156.068Z"/>
<path d="M165.014 28.5094V16.2022H167.786V18.2935H167.93C168.187 17.5884 168.611 17.0382 169.204 16.6429C169.797 16.2423 170.505 16.042 171.327 16.042C172.161 16.042 172.863 16.245 173.435 16.6509C174.012 17.0516 174.418 17.5991 174.653 18.2935H174.781C175.053 17.6098 175.513 17.0649 176.159 16.659C176.811 16.2476 177.583 16.042 178.475 16.042C179.607 16.042 180.531 16.3999 181.247 17.1157C181.963 17.8314 182.321 18.8757 182.321 20.2486V28.5094H179.412V20.6973C179.412 19.9334 179.209 19.3752 178.803 19.0226C178.397 18.6647 177.9 18.4858 177.313 18.4858C176.613 18.4858 176.066 18.7048 175.67 19.1428C175.28 19.5755 175.085 20.139 175.085 20.8335V28.5094H172.241V20.5771C172.241 19.9414 172.049 19.4339 171.664 19.0547C171.285 18.6754 170.788 18.4858 170.174 18.4858C169.757 18.4858 169.378 18.5926 169.036 18.8063C168.694 19.0146 168.422 19.3111 168.219 19.6957C168.016 20.0749 167.914 20.5183 167.914 21.0258V28.5094H165.014Z"/>
<path d="M194.99 19.4553L192.346 19.7438C192.271 19.4767 192.141 19.2256 191.954 18.9906C191.772 18.7556 191.526 18.5659 191.217 18.4217C190.907 18.2775 190.527 18.2054 190.079 18.2054C189.475 18.2054 188.968 18.3362 188.556 18.598C188.15 18.8597 187.95 19.1989 187.955 19.6156C187.95 19.9735 188.081 20.2646 188.348 20.4889C188.62 20.7133 189.069 20.8976 189.694 21.0418L191.793 21.4905C192.958 21.7415 193.823 22.1395 194.389 22.6844C194.961 23.2292 195.249 23.9423 195.255 24.8237C195.249 25.5982 195.022 26.282 194.574 26.8749C194.13 27.4625 193.513 27.9219 192.723 28.253C191.932 28.5842 191.024 28.7498 189.999 28.7498C188.492 28.7498 187.28 28.4347 186.361 27.8043C185.442 27.1687 184.895 26.2846 184.718 25.1522L187.547 24.8798C187.675 25.4353 187.947 25.8546 188.364 26.1377C188.781 26.4208 189.323 26.5624 189.991 26.5624C190.68 26.5624 191.233 26.4208 191.649 26.1377C192.071 25.8546 192.282 25.5048 192.282 25.0881C192.282 24.7356 192.146 24.4444 191.874 24.2147C191.606 23.985 191.19 23.8088 190.624 23.6859L188.524 23.2452C187.344 22.9995 186.47 22.5855 185.904 22.0033C185.338 21.4157 185.058 20.6732 185.063 19.7758C185.058 19.0173 185.263 18.3603 185.68 17.8047C186.102 17.2439 186.687 16.8112 187.435 16.5067C188.188 16.1969 189.056 16.042 190.039 16.042C191.481 16.042 192.616 16.3491 193.444 16.9634C194.277 17.5777 194.793 18.4083 194.99 19.4553Z"/>
</mask>
<path d="M59.7174 17.6365H56.7207C56.6352 17.145 56.4777 16.7097 56.248 16.3304C56.0183 15.9458 55.7325 15.62 55.3906 15.3529C55.0488 15.0858 54.6588 14.8855 54.2208 14.752C53.7881 14.6131 53.3207 14.5437 52.8186 14.5437C51.9266 14.5437 51.136 14.768 50.4469 15.2167C49.7578 15.6601 49.2183 16.3117 48.8284 17.1718C48.4385 18.0264 48.2435 19.0707 48.2435 20.3046C48.2435 21.5599 48.4385 22.6176 48.8284 23.4776C49.2237 24.3323 49.7632 24.9786 50.4469 25.4166C51.136 25.8493 51.9239 26.0656 52.8106 26.0656C53.302 26.0656 53.7614 26.0015 54.1888 25.8733C54.6214 25.7398 55.0087 25.5448 55.3506 25.2884C55.6978 25.032 55.9889 24.7169 56.2239 24.3429C56.4643 23.969 56.6299 23.5417 56.7207 23.0609L59.7174 23.077C59.6052 23.8568 59.3622 24.5887 58.9882 25.2724C58.6197 25.9561 58.1362 26.5597 57.538 27.0832C56.9397 27.6014 56.24 28.0073 55.4387 28.3011C54.6375 28.5896 53.7481 28.7338 52.7705 28.7338C51.3283 28.7338 50.041 28.3999 48.9085 27.7322C47.7761 27.0645 46.884 26.1003 46.2323 24.8397C45.5807 23.5791 45.2548 22.0674 45.2548 20.3046C45.2548 18.5365 45.5833 17.0249 46.2404 15.7696C46.8974 14.5089 47.7921 13.5448 48.9245 12.8771C50.057 12.2093 51.339 11.8755 52.7705 11.8755C53.684 11.8755 54.5333 12.0037 55.3185 12.2601C56.1037 12.5165 56.8035 12.8931 57.4178 13.3899C58.0321 13.8813 58.5369 14.4849 58.9322 15.2007C59.3328 15.9111 59.5945 16.7231 59.7174 17.6365Z" fill="white"/>
<path d="M62.3114 28.5094V16.2022H65.1238V18.2534H65.252C65.4764 17.543 65.861 16.9955 66.4058 16.6109C66.956 16.2209 67.5837 16.026 68.2888 16.026C68.449 16.026 68.6279 16.034 68.8256 16.05C69.0286 16.0607 69.1968 16.0794 69.3304 16.1061V18.7743C69.2075 18.7315 69.0125 18.6941 68.7455 18.6621C68.4837 18.6247 68.23 18.606 67.9843 18.606C67.4555 18.606 66.98 18.7208 66.5581 18.9505C66.1414 19.1749 65.8129 19.4874 65.5725 19.888C65.3321 20.2886 65.212 20.7507 65.212 21.2742V28.5094H62.3114Z" fill="white"/>
<path d="M73.4348 33.1246C73.0395 33.1246 72.6736 33.0926 72.3371 33.0285C72.0059 32.9697 71.7415 32.9003 71.5438 32.8202L72.2169 30.5606C72.6389 30.6835 73.0155 30.7423 73.3466 30.7369C73.6778 30.7316 73.9689 30.6274 74.22 30.4244C74.4764 30.2268 74.6927 29.8956 74.869 29.4309L75.1174 28.7658L70.6544 16.2022H73.7312L76.5677 25.4967H76.6959L79.5403 16.2022H82.6251L77.6974 29.9998C77.4677 30.6514 77.1633 31.2097 76.784 31.6744C76.4047 32.1444 75.94 32.5023 75.3898 32.7481C74.845 32.9991 74.1933 33.1246 73.4348 33.1246Z" fill="white"/>
<path d="M94.3594 19.4553L91.7153 19.7438C91.6405 19.4767 91.5096 19.2256 91.3227 18.9906C91.1411 18.7556 90.8954 18.5659 90.5855 18.4217C90.2757 18.2775 89.8965 18.2054 89.4478 18.2054C88.8442 18.2054 88.3367 18.3362 87.9254 18.598C87.5194 18.8597 87.3191 19.1989 87.3244 19.6156C87.3191 19.9735 87.45 20.2646 87.7171 20.4889C87.9895 20.7133 88.4382 20.8976 89.0632 21.0418L91.1624 21.4905C92.3269 21.7415 93.1923 22.1395 93.7585 22.6844C94.33 23.2292 94.6185 23.9423 94.6238 24.8237C94.6185 25.5982 94.3915 26.282 93.9428 26.8749C93.4994 27.4625 92.8825 27.9219 92.0919 28.253C91.3013 28.5842 90.3932 28.7498 89.3676 28.7498C87.8613 28.7498 86.6487 28.4347 85.73 27.8043C84.8112 27.1687 84.2637 26.2846 84.0874 25.1522L86.9158 24.8798C87.044 25.4353 87.3164 25.8546 87.7331 26.1377C88.1497 26.4208 88.6919 26.5624 89.3596 26.5624C90.0487 26.5624 90.6016 26.4208 91.0182 26.1377C91.4402 25.8546 91.6512 25.5048 91.6512 25.0881C91.6512 24.7356 91.515 24.4444 91.2426 24.2147C90.9755 23.985 90.5588 23.8088 89.9926 23.6859L87.8933 23.2452C86.7128 22.9995 85.8395 22.5855 85.2732 22.0033C84.707 21.4157 84.4266 20.6732 84.4319 19.7758C84.4266 19.0173 84.6322 18.3603 85.0489 17.8047C85.4709 17.2439 86.0558 16.8112 86.8036 16.5067C87.5568 16.1969 88.4248 16.042 89.4077 16.042C90.8499 16.042 91.9851 16.3491 92.813 16.9634C93.6463 17.5777 94.1618 18.4083 94.3594 19.4553Z" fill="white"/>
<path d="M103.161 16.2022V18.4457H96.0861V16.2022H103.161ZM97.8328 13.2536H100.733V24.8077C100.733 25.1976 100.792 25.4967 100.91 25.7051C101.032 25.908 101.193 26.0469 101.39 26.1217C101.588 26.1965 101.807 26.2339 102.047 26.2339C102.229 26.2339 102.395 26.2205 102.544 26.1938C102.699 26.1671 102.817 26.1431 102.897 26.1217L103.386 28.3892C103.231 28.4427 103.009 28.5014 102.72 28.5655C102.437 28.6296 102.09 28.667 101.679 28.6777C100.952 28.6991 100.298 28.5896 99.7158 28.3492C99.1335 28.1035 98.6715 27.7242 98.3296 27.2114C97.9931 26.6986 97.8275 26.0576 97.8328 25.2884V13.2536Z" fill="white"/>
<path d="M109.128 28.7578C108.349 28.7578 107.646 28.6189 107.021 28.3412C106.402 28.0581 105.91 27.6414 105.547 27.0912C105.189 26.541 105.01 25.8626 105.01 25.0561C105.01 24.3616 105.138 23.7874 105.395 23.3334C105.651 22.8793 106.001 22.5161 106.444 22.2437C106.888 21.9712 107.387 21.7656 107.943 21.6267C108.503 21.4825 109.083 21.3783 109.681 21.3142C110.402 21.2394 110.987 21.1727 111.436 21.1139C111.885 21.0498 112.211 20.9537 112.414 20.8255C112.622 20.6919 112.726 20.4863 112.726 20.2085V20.1604C112.726 19.5568 112.547 19.0894 112.189 18.7582C111.831 18.427 111.316 18.2615 110.643 18.2615C109.932 18.2615 109.369 18.4164 108.952 18.7262C108.541 19.036 108.263 19.4019 108.119 19.8239L105.411 19.4393C105.624 18.6915 105.977 18.0665 106.468 17.5644C106.96 17.0569 107.561 16.6776 108.271 16.4266C108.982 16.1702 109.767 16.042 110.627 16.042C111.22 16.042 111.81 16.1114 112.398 16.2503C112.985 16.3892 113.522 16.6189 114.008 16.9394C114.494 17.2545 114.884 17.6846 115.178 18.2294C115.477 18.7743 115.627 19.4553 115.627 20.2726V28.5094H112.838V26.8188H112.742C112.566 27.1607 112.317 27.4812 111.997 27.7803C111.682 28.0741 111.284 28.3118 110.803 28.4934C110.328 28.6697 109.769 28.7578 109.128 28.7578ZM109.882 26.6265C110.464 26.6265 110.969 26.5117 111.396 26.282C111.823 26.0469 112.152 25.7371 112.382 25.3525C112.617 24.9679 112.734 24.5486 112.734 24.0946V22.6443C112.643 22.7191 112.488 22.7885 112.269 22.8526C112.056 22.9167 111.815 22.9728 111.548 23.0209C111.281 23.069 111.017 23.1117 110.755 23.1491C110.493 23.1865 110.266 23.2185 110.074 23.2452C109.641 23.304 109.254 23.4001 108.912 23.5337C108.57 23.6672 108.301 23.8542 108.103 24.0946C107.905 24.3296 107.806 24.6341 107.806 25.008C107.806 25.5421 108.001 25.9454 108.391 26.2179C108.781 26.4903 109.278 26.6265 109.882 26.6265Z" fill="white"/>
<path d="M121.444 12.0998V28.5094H118.543V12.0998H121.444Z" fill="white"/>
<path d="M130.151 28.5094V12.0998H140.664V14.5917H133.124V19.0467H139.943V21.5386H133.124V28.5094H130.151Z" fill="white"/>
<path d="M147.709 28.7498C146.507 28.7498 145.465 28.4854 144.584 27.9566C143.702 27.4278 143.019 26.6879 142.533 25.7371C142.052 24.7863 141.811 23.6752 141.811 22.4039C141.811 21.1326 142.052 20.0189 142.533 19.0627C143.019 18.1065 143.702 17.3641 144.584 16.8352C145.465 16.3064 146.507 16.042 147.709 16.042C148.911 16.042 149.952 16.3064 150.834 16.8352C151.715 17.3641 152.396 18.1065 152.877 19.0627C153.363 20.0189 153.606 21.1326 153.606 22.4039C153.606 23.6752 153.363 24.7863 152.877 25.7371C152.396 26.6879 151.715 27.4278 150.834 27.9566C149.952 28.4854 148.911 28.7498 147.709 28.7498ZM147.725 26.4262C148.376 26.4262 148.921 26.2472 149.359 25.8894C149.797 25.5261 150.123 25.04 150.337 24.4311C150.556 23.8221 150.665 23.1437 150.665 22.3959C150.665 21.6427 150.556 20.9617 150.337 20.3527C150.123 19.7384 149.797 19.2497 149.359 18.8864C148.921 18.5232 148.376 18.3416 147.725 18.3416C147.057 18.3416 146.501 18.5232 146.058 18.8864C145.62 19.2497 145.292 19.7384 145.073 20.3527C144.859 20.9617 144.752 21.6427 144.752 22.3959C144.752 23.1437 144.859 23.8221 145.073 24.4311C145.292 25.04 145.62 25.5261 146.058 25.8894C146.501 26.2472 147.057 26.4262 147.725 26.4262Z" fill="white"/>
<path d="M156.068 28.5094V16.2022H158.88V18.2534H159.008C159.233 17.543 159.617 16.9955 160.162 16.6109C160.712 16.2209 161.34 16.026 162.045 16.026C162.205 16.026 162.384 16.034 162.582 16.05C162.785 16.0607 162.953 16.0794 163.087 16.1061V18.7743C162.964 18.7315 162.769 18.6941 162.502 18.6621C162.24 18.6247 161.986 18.606 161.741 18.606C161.212 18.606 160.736 18.7208 160.314 18.9505C159.898 19.1749 159.569 19.4874 159.329 19.888C159.088 20.2886 158.968 20.7507 158.968 21.2742V28.5094H156.068Z" fill="white"/>
<path d="M165.014 28.5094V16.2022H167.786V18.2935H167.93C168.187 17.5884 168.611 17.0382 169.204 16.6429C169.797 16.2423 170.505 16.042 171.327 16.042C172.161 16.042 172.863 16.245 173.435 16.6509C174.012 17.0516 174.418 17.5991 174.653 18.2935H174.781C175.053 17.6098 175.513 17.0649 176.159 16.659C176.811 16.2476 177.583 16.042 178.475 16.042C179.607 16.042 180.531 16.3999 181.247 17.1157C181.963 17.8314 182.321 18.8757 182.321 20.2486V28.5094H179.412V20.6973C179.412 19.9334 179.209 19.3752 178.803 19.0226C178.397 18.6647 177.9 18.4858 177.313 18.4858C176.613 18.4858 176.066 18.7048 175.67 19.1428C175.28 19.5755 175.085 20.139 175.085 20.8335V28.5094H172.241V20.5771C172.241 19.9414 172.049 19.4339 171.664 19.0547C171.285 18.6754 170.788 18.4858 170.174 18.4858C169.757 18.4858 169.378 18.5926 169.036 18.8063C168.694 19.0146 168.422 19.3111 168.219 19.6957C168.016 20.0749 167.914 20.5183 167.914 21.0258V28.5094H165.014Z" fill="white"/>
<path d="M194.99 19.4553L192.346 19.7438C192.271 19.4767 192.141 19.2256 191.954 18.9906C191.772 18.7556 191.526 18.5659 191.217 18.4217C190.907 18.2775 190.527 18.2054 190.079 18.2054C189.475 18.2054 188.968 18.3362 188.556 18.598C188.15 18.8597 187.95 19.1989 187.955 19.6156C187.95 19.9735 188.081 20.2646 188.348 20.4889C188.62 20.7133 189.069 20.8976 189.694 21.0418L191.793 21.4905C192.958 21.7415 193.823 22.1395 194.389 22.6844C194.961 23.2292 195.249 23.9423 195.255 24.8237C195.249 25.5982 195.022 26.282 194.574 26.8749C194.13 27.4625 193.513 27.9219 192.723 28.253C191.932 28.5842 191.024 28.7498 189.999 28.7498C188.492 28.7498 187.28 28.4347 186.361 27.8043C185.442 27.1687 184.895 26.2846 184.718 25.1522L187.547 24.8798C187.675 25.4353 187.947 25.8546 188.364 26.1377C188.781 26.4208 189.323 26.5624 189.991 26.5624C190.68 26.5624 191.233 26.4208 191.649 26.1377C192.071 25.8546 192.282 25.5048 192.282 25.0881C192.282 24.7356 192.146 24.4444 191.874 24.2147C191.606 23.985 191.19 23.8088 190.624 23.6859L188.524 23.2452C187.344 22.9995 186.47 22.5855 185.904 22.0033C185.338 21.4157 185.058 20.6732 185.063 19.7758C185.058 19.0173 185.263 18.3603 185.68 17.8047C186.102 17.2439 186.687 16.8112 187.435 16.5067C188.188 16.1969 189.056 16.042 190.039 16.042C191.481 16.042 192.616 16.3491 193.444 16.9634C194.277 17.5777 194.793 18.4083 194.99 19.4553Z" fill="white"/>
<path d="M59.7174 17.6365H56.7207C56.6352 17.145 56.4777 16.7097 56.248 16.3304C56.0183 15.9458 55.7325 15.62 55.3906 15.3529C55.0488 15.0858 54.6588 14.8855 54.2208 14.752C53.7881 14.6131 53.3207 14.5437 52.8186 14.5437C51.9266 14.5437 51.136 14.768 50.4469 15.2167C49.7578 15.6601 49.2183 16.3117 48.8284 17.1718C48.4385 18.0264 48.2435 19.0707 48.2435 20.3046C48.2435 21.5599 48.4385 22.6176 48.8284 23.4776C49.2237 24.3323 49.7632 24.9786 50.4469 25.4166C51.136 25.8493 51.9239 26.0656 52.8106 26.0656C53.302 26.0656 53.7614 26.0015 54.1888 25.8733C54.6214 25.7398 55.0087 25.5448 55.3506 25.2884C55.6978 25.032 55.9889 24.7169 56.2239 24.3429C56.4643 23.969 56.6299 23.5417 56.7207 23.0609L59.7174 23.077C59.6052 23.8568 59.3622 24.5887 58.9882 25.2724C58.6197 25.9561 58.1362 26.5597 57.538 27.0832C56.9397 27.6014 56.24 28.0073 55.4387 28.3011C54.6375 28.5896 53.7481 28.7338 52.7705 28.7338C51.3283 28.7338 50.041 28.3999 48.9085 27.7322C47.7761 27.0645 46.884 26.1003 46.2323 24.8397C45.5807 23.5791 45.2548 22.0674 45.2548 20.3046C45.2548 18.5365 45.5833 17.0249 46.2404 15.7696C46.8974 14.5089 47.7921 13.5448 48.9245 12.8771C50.057 12.2093 51.339 11.8755 52.7705 11.8755C53.684 11.8755 54.5333 12.0037 55.3185 12.2601C56.1037 12.5165 56.8035 12.8931 57.4178 13.3899C58.0321 13.8813 58.5369 14.4849 58.9322 15.2007C59.3328 15.9111 59.5945 16.7231 59.7174 17.6365Z" stroke="black" stroke-width="2" mask="url(#path-2-outside-1_222_201)"/>
<path d="M62.3114 28.5094V16.2022H65.1238V18.2534H65.252C65.4764 17.543 65.861 16.9955 66.4058 16.6109C66.956 16.2209 67.5837 16.026 68.2888 16.026C68.449 16.026 68.6279 16.034 68.8256 16.05C69.0286 16.0607 69.1968 16.0794 69.3304 16.1061V18.7743C69.2075 18.7315 69.0125 18.6941 68.7455 18.6621C68.4837 18.6247 68.23 18.606 67.9843 18.606C67.4555 18.606 66.98 18.7208 66.5581 18.9505C66.1414 19.1749 65.8129 19.4874 65.5725 19.888C65.3321 20.2886 65.212 20.7507 65.212 21.2742V28.5094H62.3114Z" stroke="black" stroke-width="2" mask="url(#path-2-outside-1_222_201)"/>
<path d="M73.4348 33.1246C73.0395 33.1246 72.6736 33.0926 72.3371 33.0285C72.0059 32.9697 71.7415 32.9003 71.5438 32.8202L72.2169 30.5606C72.6389 30.6835 73.0155 30.7423 73.3466 30.7369C73.6778 30.7316 73.9689 30.6274 74.22 30.4244C74.4764 30.2268 74.6927 29.8956 74.869 29.4309L75.1174 28.7658L70.6544 16.2022H73.7312L76.5677 25.4967H76.6959L79.5403 16.2022H82.6251L77.6974 29.9998C77.4677 30.6514 77.1633 31.2097 76.784 31.6744C76.4047 32.1444 75.94 32.5023 75.3898 32.7481C74.845 32.9991 74.1933 33.1246 73.4348 33.1246Z" stroke="black" stroke-width="2" mask="url(#path-2-outside-1_222_201)"/>
<path d="M94.3594 19.4553L91.7153 19.7438C91.6405 19.4767 91.5096 19.2256 91.3227 18.9906C91.1411 18.7556 90.8954 18.5659 90.5855 18.4217C90.2757 18.2775 89.8965 18.2054 89.4478 18.2054C88.8442 18.2054 88.3367 18.3362 87.9254 18.598C87.5194 18.8597 87.3191 19.1989 87.3244 19.6156C87.3191 19.9735 87.45 20.2646 87.7171 20.4889C87.9895 20.7133 88.4382 20.8976 89.0632 21.0418L91.1624 21.4905C92.3269 21.7415 93.1923 22.1395 93.7585 22.6844C94.33 23.2292 94.6185 23.9423 94.6238 24.8237C94.6185 25.5982 94.3915 26.282 93.9428 26.8749C93.4994 27.4625 92.8825 27.9219 92.0919 28.253C91.3013 28.5842 90.3932 28.7498 89.3676 28.7498C87.8613 28.7498 86.6487 28.4347 85.73 27.8043C84.8112 27.1687 84.2637 26.2846 84.0874 25.1522L86.9158 24.8798C87.044 25.4353 87.3164 25.8546 87.7331 26.1377C88.1497 26.4208 88.6919 26.5624 89.3596 26.5624C90.0487 26.5624 90.6016 26.4208 91.0182 26.1377C91.4402 25.8546 91.6512 25.5048 91.6512 25.0881C91.6512 24.7356 91.515 24.4444 91.2426 24.2147C90.9755 23.985 90.5588 23.8088 89.9926 23.6859L87.8933 23.2452C86.7128 22.9995 85.8395 22.5855 85.2732 22.0033C84.707 21.4157 84.4266 20.6732 84.4319 19.7758C84.4266 19.0173 84.6322 18.3603 85.0489 17.8047C85.4709 17.2439 86.0558 16.8112 86.8036 16.5067C87.5568 16.1969 88.4248 16.042 89.4077 16.042C90.8499 16.042 91.9851 16.3491 92.813 16.9634C93.6463 17.5777 94.1618 18.4083 94.3594 19.4553Z" stroke="black" stroke-width="2" mask="url(#path-2-outside-1_222_201)"/>
<path d="M103.161 16.2022V18.4457H96.0861V16.2022H103.161ZM97.8328 13.2536H100.733V24.8077C100.733 25.1976 100.792 25.4967 100.91 25.7051C101.032 25.908 101.193 26.0469 101.39 26.1217C101.588 26.1965 101.807 26.2339 102.047 26.2339C102.229 26.2339 102.395 26.2205 102.544 26.1938C102.699 26.1671 102.817 26.1431 102.897 26.1217L103.386 28.3892C103.231 28.4427 103.009 28.5014 102.72 28.5655C102.437 28.6296 102.09 28.667 101.679 28.6777C100.952 28.6991 100.298 28.5896 99.7158 28.3492C99.1335 28.1035 98.6715 27.7242 98.3296 27.2114C97.9931 26.6986 97.8275 26.0576 97.8328 25.2884V13.2536Z" stroke="black" stroke-width="2" mask="url(#path-2-outside-1_222_201)"/>
<path d="M109.128 28.7578C108.349 28.7578 107.646 28.6189 107.021 28.3412C106.402 28.0581 105.91 27.6414 105.547 27.0912C105.189 26.541 105.01 25.8626 105.01 25.0561C105.01 24.3616 105.138 23.7874 105.395 23.3334C105.651 22.8793 106.001 22.5161 106.444 22.2437C106.888 21.9712 107.387 21.7656 107.943 21.6267C108.503 21.4825 109.083 21.3783 109.681 21.3142C110.402 21.2394 110.987 21.1727 111.436 21.1139C111.885 21.0498 112.211 20.9537 112.414 20.8255C112.622 20.6919 112.726 20.4863 112.726 20.2085V20.1604C112.726 19.5568 112.547 19.0894 112.189 18.7582C111.831 18.427 111.316 18.2615 110.643 18.2615C109.932 18.2615 109.369 18.4164 108.952 18.7262C108.541 19.036 108.263 19.4019 108.119 19.8239L105.411 19.4393C105.624 18.6915 105.977 18.0665 106.468 17.5644C106.96 17.0569 107.561 16.6776 108.271 16.4266C108.982 16.1702 109.767 16.042 110.627 16.042C111.22 16.042 111.81 16.1114 112.398 16.2503C112.985 16.3892 113.522 16.6189 114.008 16.9394C114.494 17.2545 114.884 17.6846 115.178 18.2294C115.477 18.7743 115.627 19.4553 115.627 20.2726V28.5094H112.838V26.8188H112.742C112.566 27.1607 112.317 27.4812 111.997 27.7803C111.682 28.0741 111.284 28.3118 110.803 28.4934C110.328 28.6697 109.769 28.7578 109.128 28.7578ZM109.882 26.6265C110.464 26.6265 110.969 26.5117 111.396 26.282C111.823 26.0469 112.152 25.7371 112.382 25.3525C112.617 24.9679 112.734 24.5486 112.734 24.0946V22.6443C112.643 22.7191 112.488 22.7885 112.269 22.8526C112.056 22.9167 111.815 22.9728 111.548 23.0209C111.281 23.069 111.017 23.1117 110.755 23.1491C110.493 23.1865 110.266 23.2185 110.074 23.2452C109.641 23.304 109.254 23.4001 108.912 23.5337C108.57 23.6672 108.301 23.8542 108.103 24.0946C107.905 24.3296 107.806 24.6341 107.806 25.008C107.806 25.5421 108.001 25.9454 108.391 26.2179C108.781 26.4903 109.278 26.6265 109.882 26.6265Z" stroke="black" stroke-width="2" mask="url(#path-2-outside-1_222_201)"/>
<path d="M121.444 12.0998V28.5094H118.543V12.0998H121.444Z" stroke="black" stroke-width="2" mask="url(#path-2-outside-1_222_201)"/>
<path d="M130.151 28.5094V12.0998H140.664V14.5917H133.124V19.0467H139.943V21.5386H133.124V28.5094H130.151Z" stroke="black" stroke-width="2" mask="url(#path-2-outside-1_222_201)"/>
<path d="M147.709 28.7498C146.507 28.7498 145.465 28.4854 144.584 27.9566C143.702 27.4278 143.019 26.6879 142.533 25.7371C142.052 24.7863 141.811 23.6752 141.811 22.4039C141.811 21.1326 142.052 20.0189 142.533 19.0627C143.019 18.1065 143.702 17.3641 144.584 16.8352C145.465 16.3064 146.507 16.042 147.709 16.042C148.911 16.042 149.952 16.3064 150.834 16.8352C151.715 17.3641 152.396 18.1065 152.877 19.0627C153.363 20.0189 153.606 21.1326 153.606 22.4039C153.606 23.6752 153.363 24.7863 152.877 25.7371C152.396 26.6879 151.715 27.4278 150.834 27.9566C149.952 28.4854 148.911 28.7498 147.709 28.7498ZM147.725 26.4262C148.376 26.4262 148.921 26.2472 149.359 25.8894C149.797 25.5261 150.123 25.04 150.337 24.4311C150.556 23.8221 150.665 23.1437 150.665 22.3959C150.665 21.6427 150.556 20.9617 150.337 20.3527C150.123 19.7384 149.797 19.2497 149.359 18.8864C148.921 18.5232 148.376 18.3416 147.725 18.3416C147.057 18.3416 146.501 18.5232 146.058 18.8864C145.62 19.2497 145.292 19.7384 145.073 20.3527C144.859 20.9617 144.752 21.6427 144.752 22.3959C144.752 23.1437 144.859 23.8221 145.073 24.4311C145.292 25.04 145.62 25.5261 146.058 25.8894C146.501 26.2472 147.057 26.4262 147.725 26.4262Z" stroke="black" stroke-width="2" mask="url(#path-2-outside-1_222_201)"/>
<path d="M156.068 28.5094V16.2022H158.88V18.2534H159.008C159.233 17.543 159.617 16.9955 160.162 16.6109C160.712 16.2209 161.34 16.026 162.045 16.026C162.205 16.026 162.384 16.034 162.582 16.05C162.785 16.0607 162.953 16.0794 163.087 16.1061V18.7743C162.964 18.7315 162.769 18.6941 162.502 18.6621C162.24 18.6247 161.986 18.606 161.741 18.606C161.212 18.606 160.736 18.7208 160.314 18.9505C159.898 19.1749 159.569 19.4874 159.329 19.888C159.088 20.2886 158.968 20.7507 158.968 21.2742V28.5094H156.068Z" stroke="black" stroke-width="2" mask="url(#path-2-outside-1_222_201)"/>
<path d="M165.014 28.5094V16.2022H167.786V18.2935H167.93C168.187 17.5884 168.611 17.0382 169.204 16.6429C169.797 16.2423 170.505 16.042 171.327 16.042C172.161 16.042 172.863 16.245 173.435 16.6509C174.012 17.0516 174.418 17.5991 174.653 18.2935H174.781C175.053 17.6098 175.513 17.0649 176.159 16.659C176.811 16.2476 177.583 16.042 178.475 16.042C179.607 16.042 180.531 16.3999 181.247 17.1157C181.963 17.8314 182.321 18.8757 182.321 20.2486V28.5094H179.412V20.6973C179.412 19.9334 179.209 19.3752 178.803 19.0226C178.397 18.6647 177.9 18.4858 177.313 18.4858C176.613 18.4858 176.066 18.7048 175.67 19.1428C175.28 19.5755 175.085 20.139 175.085 20.8335V28.5094H172.241V20.5771C172.241 19.9414 172.049 19.4339 171.664 19.0547C171.285 18.6754 170.788 18.4858 170.174 18.4858C169.757 18.4858 169.378 18.5926 169.036 18.8063C168.694 19.0146 168.422 19.3111 168.219 19.6957C168.016 20.0749 167.914 20.5183 167.914 21.0258V28.5094H165.014Z" stroke="black" stroke-width="2" mask="url(#path-2-outside-1_222_201)"/>
<path d="M194.99 19.4553L192.346 19.7438C192.271 19.4767 192.141 19.2256 191.954 18.9906C191.772 18.7556 191.526 18.5659 191.217 18.4217C190.907 18.2775 190.527 18.2054 190.079 18.2054C189.475 18.2054 188.968 18.3362 188.556 18.598C188.15 18.8597 187.95 19.1989 187.955 19.6156C187.95 19.9735 188.081 20.2646 188.348 20.4889C188.62 20.7133 189.069 20.8976 189.694 21.0418L191.793 21.4905C192.958 21.7415 193.823 22.1395 194.389 22.6844C194.961 23.2292 195.249 23.9423 195.255 24.8237C195.249 25.5982 195.022 26.282 194.574 26.8749C194.13 27.4625 193.513 27.9219 192.723 28.253C191.932 28.5842 191.024 28.7498 189.999 28.7498C188.492 28.7498 187.28 28.4347 186.361 27.8043C185.442 27.1687 184.895 26.2846 184.718 25.1522L187.547 24.8798C187.675 25.4353 187.947 25.8546 188.364 26.1377C188.781 26.4208 189.323 26.5624 189.991 26.5624C190.68 26.5624 191.233 26.4208 191.649 26.1377C192.071 25.8546 192.282 25.5048 192.282 25.0881C192.282 24.7356 192.146 24.4444 191.874 24.2147C191.606 23.985 191.19 23.8088 190.624 23.6859L188.524 23.2452C187.344 22.9995 186.47 22.5855 185.904 22.0033C185.338 21.4157 185.058 20.6732 185.063 19.7758C185.058 19.0173 185.263 18.3603 185.68 17.8047C186.102 17.2439 186.687 16.8112 187.435 16.5067C188.188 16.1969 189.056 16.042 190.039 16.042C191.481 16.042 192.616 16.3491 193.444 16.9634C194.277 17.5777 194.793 18.4083 194.99 19.4553Z" stroke="black" stroke-width="2" mask="url(#path-2-outside-1_222_201)"/>
</g>
</g>
<defs>
<filter id="filter0_d_222_201" x="40.2548" y="10.8755" width="160" height="31.2493" filterUnits="userSpaceOnUse" color-interpolation-filters="sRGB">
<feFlood flood-opacity="0" result="BackgroundImageFix"/>
<feColorMatrix in="SourceAlpha" type="matrix" values="0 0 0 0 0 0 0 0 0 0 0 0 0 0 0 0 0 0 127 0" result="hardAlpha"/>
<feOffset dy="4"/>
<feGaussianBlur stdDeviation="2"/>
<feComposite in2="hardAlpha" operator="out"/>
<feColorMatrix type="matrix" values="0 0 0 0 0 0 0 0 0 0 0 0 0 0 0 0 0 0 0.25 0"/>
<feBlend mode="normal" in2="BackgroundImageFix" result="effect1_dropShadow_222_201"/>
<feBlend mode="normal" in="SourceGraphic" in2="effect1_dropShadow_222_201" result="shape"/>
</filter>
<clipPath id="clip0_222_201">
<rect width="195" height="45" fill="white"/>
</clipPath>
</defs>
</svg>
