<svg width="20" height="20" viewBox="0 0 20 20" fill="none" xmlns="http://www.w3.org/2000/svg">
<g clip-path="url(#clip0_326_586)">
<path d="M8.18766 8.12842C7.63666 8.12842 7.20166 8.61175 7.20166 9.20142C7.20166 9.79108 7.64633 10.2744 8.18766 10.2744C8.73866 10.2744 9.17366 9.79108 9.17366 9.20142C9.18333 8.61175 8.73866 8.12842 8.18766 8.12842ZM11.716 8.12842C11.165 8.12842 10.73 8.61175 10.73 9.20142C10.73 9.79108 11.1747 10.2744 11.716 10.2744C12.267 10.2744 12.702 9.79108 12.702 9.20142C12.702 8.61175 12.267 8.12842 11.716 8.12842Z" fill="#B2B2B2"/>
<path d="M16.4139 0.0180664H3.46055C2.36822 0.0180664 1.47888 0.9074 1.47888 2.0094V15.0787C1.47888 16.1807 2.36822 17.0701 3.46055 17.0701H14.4226L13.9102 15.2817L15.1476 16.4321L16.3172 17.5147L18.3956 19.3514V2.0094C18.3956 0.9074 17.5062 0.0180664 16.4139 0.0180664ZM12.6826 12.6427C12.6826 12.6427 12.3346 12.2271 12.0446 11.8597C13.3109 11.5021 13.7942 10.7094 13.7942 10.7094C13.3979 10.9704 13.0209 11.1541 12.6826 11.2797C12.1992 11.4827 11.7352 11.6181 11.2809 11.6954C10.3529 11.8694 9.50223 11.8211 8.77723 11.6857C8.22623 11.5794 7.75256 11.4247 7.35623 11.2701C7.1339 11.1831 6.89223 11.0767 6.65055 10.9414C6.62155 10.9221 6.59255 10.9124 6.56355 10.8931C6.54422 10.8834 6.53455 10.8737 6.52488 10.8641C6.35088 10.7674 6.25422 10.6997 6.25422 10.6997C6.25422 10.6997 6.71823 11.4731 7.9459 11.8404C7.6559 12.2077 7.29823 12.6427 7.29823 12.6427C5.16188 12.5751 4.34988 11.1734 4.34988 11.1734C4.34988 8.06073 5.74188 5.53773 5.74188 5.53773C7.1339 4.49373 8.45823 4.52273 8.45823 4.52273L8.5549 4.63873C6.8149 5.1414 6.01255 5.90507 6.01255 5.90507C6.01255 5.90507 6.22522 5.78907 6.58288 5.62473C7.61723 5.1704 8.4389 5.04473 8.77723 5.01573C8.83523 5.00607 8.88356 4.9964 8.94156 4.9964C9.53123 4.91907 10.1982 4.89973 10.8942 4.97707C11.8126 5.0834 12.7986 5.35407 13.8039 5.90507C13.8039 5.90507 13.0402 5.18007 11.3969 4.6774L11.5322 4.52273C11.5322 4.52273 12.8566 4.49373 14.2486 5.53773C14.2486 5.53773 15.6406 8.06073 15.6406 11.1734C15.6406 11.1734 14.8189 12.5751 12.6826 12.6427Z" fill="#B2B2B2"/>
</g>
<defs>
<clipPath id="clip0_326_586">
<rect width="20" height="19.3333" fill="white" transform="translate(0 0.0180664)"/>
</clipPath>
</defs>
</svg>
