<svg width="185" height="27" viewBox="0 0 185 27" fill="none" xmlns="http://www.w3.org/2000/svg">
<g clip-path="url(#clip0_305_175)">
<path fill-rule="evenodd" clip-rule="evenodd" d="M13.2441 19.2423C14.1571 18.4835 15.0815 17.6423 15.9962 16.7276C16.9109 15.813 17.7521 14.8886 18.5109 13.9755C17.7521 13.0624 16.9109 12.138 15.9962 11.2233C15.0815 10.3086 14.1571 9.46738 13.2441 8.70858C12.3309 9.46738 11.4066 10.3086 10.4918 11.2233C9.57716 12.138 8.73597 13.0624 7.9771 13.9755C8.73597 14.8886 9.57716 15.813 10.4918 16.7276C11.4066 17.6423 12.3309 18.4835 13.2441 19.2423ZM15.0571 20.6534C15.9036 19.9321 16.7509 19.1506 17.585 18.3164C18.4192 17.4823 19.2007 16.635 19.9219 15.7885C20.8182 17.0244 21.5434 18.2112 22.0736 19.2927C22.6594 20.4878 22.9783 21.4963 23.0595 22.2653C23.1421 23.0465 22.9673 23.3972 22.8166 23.548C22.6657 23.6988 22.3151 23.8736 21.5339 23.7909C20.7649 23.7097 19.7564 23.3908 18.5613 22.8051C17.4798 22.2749 16.2929 21.5496 15.0571 20.6534ZM13.2441 22.1074C14.7467 23.238 16.2157 24.1577 17.5722 24.8226C18.8949 25.471 20.1689 25.9062 21.2977 26.0255C22.4143 26.1435 23.5769 25.9654 24.4054 25.1368C25.2339 24.3083 25.412 23.1458 25.2941 22.0292C25.1748 20.9003 24.7396 19.6264 24.0912 18.3037C23.4262 16.9471 22.5066 15.4781 21.376 13.9755C22.5066 12.4728 23.4262 11.0038 24.0912 9.64729C24.7396 8.3245 25.1748 7.0506 25.294 5.92178C25.412 4.8052 25.2339 3.64266 24.4054 2.8141C23.5769 1.98554 22.4143 1.80745 21.2977 1.92546C20.1689 2.04475 18.8949 2.47992 17.5722 3.12832C16.2157 3.79328 14.7467 4.71291 13.2441 5.84349C11.7414 4.71291 10.2724 3.79328 8.91581 3.12832C7.59309 2.47992 6.31916 2.04475 5.19034 1.92546C4.07376 1.80745 2.91122 1.98554 2.08265 2.8141C1.25409 3.64266 1.076 4.8052 1.19401 5.92178C1.31332 7.05061 1.74848 8.3245 2.39687 9.64729C3.06184 11.0038 3.98147 12.4728 5.11204 13.9755C3.98147 15.4781 3.06184 16.9471 2.39687 18.3037C1.74848 19.6264 1.31331 20.9003 1.19401 22.0292C1.076 23.1458 1.25409 24.3083 2.08265 25.1368C2.91121 25.9654 4.07375 26.1435 5.19033 26.0255C6.31915 25.9062 7.59309 25.471 8.91581 24.8226C10.2724 24.1577 11.7414 23.238 13.2441 22.1074ZM11.431 20.6534C10.5844 19.9321 9.73715 19.1506 8.903 18.3164C8.06885 17.4823 7.28737 16.635 6.56615 15.7885C5.66986 17.0244 4.9446 18.2112 4.41446 19.2927C3.82861 20.4878 3.5098 21.4963 3.42853 22.2653C3.34596 23.0465 3.52069 23.3972 3.6715 23.548C3.8223 23.6988 4.17294 23.8736 4.95417 23.7909C5.72316 23.7097 6.73165 23.3908 7.92677 22.8051C9.00823 22.2749 10.1952 21.5496 11.431 20.6534ZM6.56615 12.1625C7.28737 11.3159 8.06885 10.4686 8.903 9.63448C9.73715 8.80033 10.5844 8.01884 11.431 7.29759C10.1952 6.40131 9.00831 5.67604 7.92677 5.14591C6.73166 4.56006 5.72316 4.24124 4.95418 4.15997C4.17294 4.0774 3.82231 4.25213 3.6715 4.40294C3.5207 4.55374 3.34596 4.90438 3.42853 5.68561C3.50981 6.4546 3.82862 7.4631 4.41447 8.65825C4.9446 9.73971 5.66986 10.9266 6.56615 12.1625ZM15.0571 7.29759C15.9036 8.01884 16.7509 8.80033 17.585 9.63448C18.4192 10.4686 19.2007 11.3159 19.9219 12.1625C20.8182 10.9266 21.5434 9.73971 22.0736 8.65825C22.6594 7.4631 22.9783 6.4546 23.0595 5.68561C23.1421 4.90438 22.9673 4.55374 22.8166 4.40294C22.6657 4.25213 22.3151 4.0774 21.5339 4.15997C20.7649 4.24124 19.7564 4.56006 18.5613 5.14591C17.4798 5.67604 16.2929 6.40131 15.0571 7.29759Z" fill="white"/>
<path d="M50.0168 11.685H47.0395C46.9546 11.1967 46.7981 10.7642 46.5698 10.3874C46.3416 10.0053 46.0577 9.68154 45.718 9.41617C45.3784 9.15081 44.9909 8.9518 44.5557 8.81908C44.1258 8.68112 43.6615 8.61213 43.1626 8.61213C42.2763 8.61213 41.4908 8.83503 40.8062 9.28083C40.1216 9.72131 39.5855 10.3688 39.1982 11.2233C38.8107 12.0725 38.617 13.11 38.617 14.336C38.617 15.5831 38.8107 16.6339 39.1982 17.4885C39.5909 18.3376 40.1269 18.9798 40.8062 19.4149C41.4908 19.8449 42.2737 20.0597 43.1546 20.0597C43.6429 20.0597 44.0993 19.9961 44.5239 19.8687C44.9538 19.736 45.3386 19.5423 45.6783 19.2875C46.0232 19.0328 46.3124 18.7197 46.546 18.3482C46.7847 17.9767 46.9493 17.5521 47.0395 17.0745L50.0168 17.0904C49.9054 17.8652 49.6639 18.5923 49.2924 19.2717C48.9262 19.951 48.4459 20.5507 47.8515 21.0708C47.2571 21.5856 46.5618 21.9889 45.7658 22.2809C44.9697 22.5674 44.0861 22.7107 43.1148 22.7107C41.6819 22.7107 40.4028 22.379 39.2777 21.7156C38.1526 21.0522 37.2663 20.0943 36.6188 18.8417C35.9714 17.5893 35.6476 16.0873 35.6476 14.336C35.6476 12.5793 35.974 11.0774 36.6268 9.83014C37.2796 8.57761 38.1685 7.61965 39.2937 6.95629C40.4188 6.29289 41.6925 5.96118 43.1148 5.96118C44.0224 5.96118 44.8662 6.08855 45.6463 6.3433C46.4266 6.59805 47.1218 6.9722 47.7321 7.46578C48.3424 7.95407 48.844 8.55379 49.2367 9.26495C49.6347 9.9708 49.8948 10.7775 50.0168 11.685Z" fill="white"/>
<path d="M52.5941 22.4878V10.26H55.3884V12.2979H55.5157C55.7386 11.5921 56.1207 11.0481 56.6621 10.666C57.2087 10.2785 57.8323 10.0848 58.5328 10.0848C58.6921 10.0848 58.8699 10.0928 59.0662 10.1087C59.2679 10.1194 59.4351 10.1379 59.5678 10.1645V12.8154C59.4457 12.773 59.252 12.7358 58.9867 12.704C58.7266 12.6668 58.4745 12.6482 58.2303 12.6482C57.7049 12.6482 57.2326 12.7623 56.8133 12.9905C56.3994 13.2134 56.0729 13.5239 55.8342 13.922C55.5953 14.32 55.4759 14.779 55.4759 15.2991V22.4878H52.5941Z" fill="white"/>
<path d="M63.6456 27.0733C63.253 27.0733 62.8894 27.0414 62.555 26.9777C62.226 26.9194 61.9633 26.8504 61.767 26.7708L62.4357 24.5258C62.8549 24.6478 63.2291 24.7063 63.5581 24.7009C63.8871 24.6956 64.1764 24.5921 64.4259 24.3905C64.6806 24.1941 64.8956 23.8651 65.0707 23.4033L65.3175 22.7426L60.8833 10.26H63.9402L66.7584 19.4946H66.8857L69.7118 10.26H72.7767L67.8808 23.9686C67.6526 24.616 67.3501 25.1706 66.9733 25.6324C66.5965 26.0994 66.1348 26.455 65.5881 26.6991C65.0468 26.9485 64.3993 27.0733 63.6456 27.0733Z" fill="white"/>
<path d="M84.4356 13.4921L81.8082 13.7787C81.734 13.5134 81.6037 13.2639 81.4179 13.0304C81.2374 12.7969 80.9933 12.6084 80.6854 12.4652C80.3776 12.3219 80.0009 12.2502 79.5552 12.2502C78.9553 12.2502 78.4512 12.3802 78.043 12.6403C77.6393 12.9003 77.4401 13.2374 77.4461 13.6513C77.4401 14.0069 77.5704 14.2961 77.8355 14.519C78.1067 14.7419 78.5523 14.9251 79.1732 15.0683L81.2592 15.5141C82.4156 15.7636 83.2754 16.159 83.8379 16.7003C84.4064 17.2417 84.6925 17.9501 84.6978 18.8259C84.6925 19.5954 84.4671 20.2747 84.0214 20.8638C83.581 21.4476 82.9676 21.9041 82.1827 22.2331C81.397 22.5621 80.4944 22.7267 79.4758 22.7267C77.9793 22.7267 76.7742 22.4135 75.8612 21.7873C74.9489 21.1557 74.4047 20.2774 74.2296 19.1523L77.0401 18.8816C77.1674 19.4335 77.4378 19.8501 77.852 20.1314C78.2655 20.4127 78.8047 20.5533 79.4676 20.5533C80.1522 20.5533 80.7019 20.4127 81.1154 20.1314C81.5348 19.8501 81.7445 19.5025 81.7445 19.0885C81.7445 18.7383 81.6089 18.449 81.3386 18.2208C81.0734 17.9926 80.6592 17.8175 80.0967 17.6954L78.0108 17.2576C76.8379 17.0135 75.9706 16.6021 75.4081 16.0237C74.8452 15.4398 74.5666 14.7022 74.5719 13.8106C74.5666 13.0569 74.7709 12.4041 75.1849 11.8522C75.6043 11.2949 76.1855 10.865 76.9285 10.5625C77.6768 10.2547 78.5388 10.1008 79.5155 10.1008C80.9483 10.1008 82.0763 10.406 82.8987 11.0163C83.7271 11.6266 84.2386 12.4519 84.4356 13.4921Z" fill="white"/>
<path d="M93.1801 10.26V12.489H86.1509V10.26H93.1801ZM87.8863 7.33044H90.7684V18.8099C90.7684 19.1974 90.8268 19.4946 90.9436 19.7015C91.0657 19.9032 91.2245 20.0412 91.4208 20.1155C91.6177 20.1898 91.8349 20.2269 92.0739 20.2269C92.2544 20.2269 92.4184 20.2137 92.5675 20.1871C92.721 20.1606 92.8378 20.1367 92.918 20.1155L93.4033 22.3684C93.249 22.4214 93.0288 22.4799 92.7427 22.5435C92.4611 22.6072 92.1166 22.6443 91.7076 22.655C90.9856 22.6763 90.3355 22.5674 89.7573 22.3286C89.179 22.0845 88.7199 21.7077 88.3799 21.1981C88.0458 20.6887 87.881 20.0518 87.8863 19.2875V7.33044Z" fill="white"/>
<path d="M99.1091 22.7346C98.3346 22.7346 97.6365 22.5966 97.0156 22.3206C96.4 22.0394 95.9116 21.6254 95.5506 21.0787C95.1948 20.5321 95.0173 19.8581 95.0173 19.0567C95.0173 18.3668 95.1447 17.7962 95.3993 17.3451C95.654 16.894 96.0015 16.5331 96.4419 16.2625C96.8831 15.9918 97.3789 15.7874 97.9309 15.6495C98.4881 15.5062 99.0641 15.4027 99.6581 15.339C100.375 15.2647 100.956 15.1984 101.402 15.14C101.847 15.0763 102.172 14.9808 102.373 14.8534C102.58 14.7207 102.683 14.5164 102.683 14.2404V14.1927C102.683 13.593 102.506 13.1285 102.15 12.7995C101.794 12.4705 101.283 12.3059 100.614 12.3059C99.9075 12.3059 99.348 12.4598 98.9338 12.7677C98.5256 13.0755 98.2492 13.4391 98.1062 13.8583L95.415 13.4762C95.6278 12.7331 95.9775 12.1122 96.4659 11.6133C96.9542 11.1092 97.5512 10.7324 98.2575 10.483C98.963 10.2282 99.7434 10.1008 100.598 10.1008C101.187 10.1008 101.773 10.1698 102.357 10.3078C102.941 10.4458 103.474 10.674 103.957 10.9924C104.44 11.3056 104.828 11.7328 105.12 12.2741C105.417 12.8155 105.565 13.4921 105.565 14.3041V22.4878H102.795V20.8081H102.7C102.524 21.1477 102.277 21.4662 101.959 21.7634C101.646 22.0553 101.25 22.2914 100.773 22.4719C100.301 22.6471 99.7457 22.7346 99.1091 22.7346ZM99.8573 20.617C100.436 20.617 100.937 20.5029 101.362 20.2747C101.787 20.0412 102.113 19.7334 102.341 19.3513C102.575 18.9691 102.691 18.5526 102.691 18.1014V16.6605C102.602 16.7348 102.447 16.8038 102.23 16.8675C102.017 16.9311 101.778 16.9869 101.513 17.0347C101.248 17.0824 100.985 17.1249 100.725 17.1621C100.465 17.1992 100.239 17.231 100.048 17.2576C99.6184 17.316 99.2341 17.4115 98.8941 17.5442C98.5548 17.6768 98.2867 17.8626 98.0904 18.1014C97.8934 18.3349 97.7953 18.6374 97.7953 19.0089C97.7953 19.5396 97.9893 19.9404 98.3765 20.211C98.7638 20.4817 99.2573 20.617 99.8573 20.617Z" fill="white"/>
<path d="M111.344 6.18408V22.4878H108.463V6.18408H111.344Z" fill="white"/>
<path d="M119.996 22.4878V6.18408H130.441V8.65991H122.949V13.0861H129.725V15.5619H122.949V22.4878H119.996Z" fill="white"/>
<path d="M137.44 22.7267C136.246 22.7267 135.211 22.4639 134.335 21.9385C133.46 21.4131 132.781 20.678 132.297 19.7334C131.82 18.7887 131.581 17.6848 131.581 16.4217C131.581 15.1586 131.82 14.052 132.297 13.102C132.781 12.152 133.46 11.4143 134.335 10.8889C135.211 10.3635 136.246 10.1008 137.44 10.1008C138.635 10.1008 139.67 10.3635 140.545 10.8889C141.421 11.4143 142.097 12.152 142.575 13.102C143.058 14.052 143.299 15.1586 143.299 16.4217C143.299 17.6848 143.058 18.7887 142.575 19.7334C142.097 20.678 141.421 21.4131 140.545 21.9385C139.67 22.4639 138.635 22.7267 137.44 22.7267ZM137.456 20.418C138.104 20.418 138.645 20.2403 139.08 19.8846C139.515 19.5238 139.839 19.0408 140.052 18.4358C140.269 17.8308 140.378 17.1567 140.378 16.4137C140.378 15.6654 140.269 14.9887 140.052 14.3837C139.839 13.7734 139.515 13.2878 139.08 12.9269C138.645 12.566 138.104 12.3855 137.456 12.3855C136.793 12.3855 136.241 12.566 135.8 12.9269C135.365 13.2878 135.039 13.7734 134.822 14.3837C134.609 14.9887 134.502 15.6654 134.502 16.4137C134.502 17.1567 134.609 17.8308 134.822 18.4358C135.039 19.0408 135.365 19.5238 135.8 19.8846C136.241 20.2403 136.793 20.418 137.456 20.418Z" fill="white"/>
<path d="M145.745 22.4878V10.26H148.54V12.2979H148.667C148.89 11.5921 149.272 11.0481 149.813 10.666C150.36 10.2785 150.984 10.0848 151.684 10.0848C151.844 10.0848 152.021 10.0928 152.218 10.1087C152.419 10.1194 152.587 10.1379 152.719 10.1645V12.8154C152.597 12.773 152.403 12.7358 152.138 12.704C151.878 12.6668 151.626 12.6482 151.382 12.6482C150.857 12.6482 150.384 12.7623 149.965 12.9905C149.55 13.2134 149.225 13.5239 148.986 13.922C148.747 14.32 148.628 14.779 148.628 15.2991V22.4878H145.745Z" fill="white"/>
<path d="M154.634 22.4878V10.26H157.388V12.3378H157.532C157.786 11.6372 158.208 11.0906 158.797 10.6978C159.386 10.2998 160.089 10.1008 160.907 10.1008C161.735 10.1008 162.433 10.3025 163.001 10.7059C163.574 11.1039 163.977 11.6479 164.21 12.3378H164.338C164.609 11.6585 165.065 11.1171 165.708 10.7138C166.355 10.3052 167.122 10.1008 168.008 10.1008C169.133 10.1008 170.051 10.4564 170.762 11.1675C171.473 11.8787 171.829 12.9163 171.829 14.2803V22.4878H168.939V14.7261C168.939 13.9671 168.738 13.4125 168.334 13.0623C167.931 12.7066 167.437 12.5288 166.854 12.5288C166.158 12.5288 165.615 12.7465 165.221 13.1816C164.834 13.6116 164.64 14.1714 164.64 14.8614V22.4878H161.814V14.6066C161.814 13.975 161.623 13.4709 161.241 13.0941C160.865 12.7173 160.371 12.5288 159.761 12.5288C159.346 12.5288 158.97 12.635 158.63 12.8473C158.29 13.0542 158.02 13.3488 157.818 13.7309C157.616 14.1078 157.516 14.5482 157.516 15.0525V22.4878H154.634Z" fill="white"/>
<path d="M184.417 13.4921L181.79 13.7787C181.716 13.5134 181.585 13.2639 181.4 13.0304C181.22 12.7969 180.976 12.6084 180.668 12.4652C180.36 12.3219 179.983 12.2502 179.537 12.2502C178.938 12.2502 178.433 12.3802 178.025 12.6403C177.621 12.9003 177.422 13.2374 177.428 13.6513C177.422 14.0069 177.552 14.2961 177.817 14.519C178.088 14.7419 178.534 14.9251 179.155 15.0683L181.241 15.5141C182.398 15.7636 183.257 16.159 183.82 16.7003C184.388 17.2417 184.674 17.9501 184.679 18.8259C184.674 19.5954 184.449 20.2747 184.003 20.8638C183.563 21.4476 182.949 21.9041 182.164 22.2331C181.379 22.5621 180.477 22.7267 179.457 22.7267C177.961 22.7267 176.756 22.4135 175.844 21.7873C174.931 21.1557 174.387 20.2774 174.212 19.1523L177.022 18.8816C177.149 19.4335 177.419 19.8501 177.834 20.1314C178.247 20.4127 178.786 20.5533 179.449 20.5533C180.134 20.5533 180.684 20.4127 181.098 20.1314C181.516 19.8501 181.726 19.5025 181.726 19.0885C181.726 18.7383 181.591 18.449 181.32 18.2208C181.055 17.9926 180.641 17.8175 180.078 17.6954L177.992 17.2576C176.82 17.0135 175.952 16.6021 175.39 16.0237C174.827 15.4398 174.549 14.7022 174.554 13.8106C174.549 13.0569 174.752 12.4041 175.167 11.8522C175.586 11.2949 176.167 10.865 176.91 10.5625C177.658 10.2547 178.52 10.1008 179.497 10.1008C180.93 10.1008 182.058 10.406 182.88 11.0163C183.709 11.6266 184.221 12.4519 184.417 13.4921Z" fill="white"/>
</g>
<defs>
<clipPath id="clip0_305_175">
<rect width="185" height="26.9636" fill="white" transform="translate(0 0.0181885)"/>
</clipPath>
</defs>
</svg>
