<svg width="64" height="20" viewBox="0 0 64 20" fill="none" xmlns="http://www.w3.org/2000/svg">
<g clip-path="url(#clip0_240_137)">
<path d="M8.18766 8.11034C7.63666 8.11034 7.20166 8.59367 7.20166 9.18334C7.20166 9.773 7.64633 10.2563 8.18766 10.2563C8.73866 10.2563 9.17366 9.773 9.17366 9.18334C9.18333 8.59367 8.73866 8.11034 8.18766 8.11034ZM11.716 8.11034C11.165 8.11034 10.73 8.59367 10.73 9.18334C10.73 9.773 11.1747 10.2563 11.716 10.2563C12.267 10.2563 12.702 9.773 12.702 9.18334C12.702 8.59367 12.267 8.11034 11.716 8.11034Z" fill="#C0C0C0"/>
<path d="M16.414 0H3.46067C2.36834 0 1.479 0.889333 1.479 1.99133V15.0607C1.479 16.1627 2.36834 17.052 3.46067 17.052H14.4227L13.9104 15.2637L15.1477 16.414L16.3174 17.4967L18.3957 19.3333V1.99133C18.3957 0.889333 17.5064 0 16.414 0ZM12.6827 12.6247C12.6827 12.6247 12.3347 12.209 12.0447 11.8417C13.311 11.484 13.7944 10.6913 13.7944 10.6913C13.398 10.9523 13.021 11.136 12.6827 11.2617C12.1994 11.4647 11.7354 11.6 11.281 11.6773C10.353 11.8513 9.50235 11.803 8.77735 11.6677C8.22635 11.5613 7.75268 11.4067 7.35635 11.252C7.13402 11.165 6.89235 11.0587 6.65067 10.9233C6.62167 10.904 6.59267 10.8943 6.56367 10.875C6.54434 10.8653 6.53467 10.8557 6.525 10.846C6.351 10.7493 6.25434 10.6817 6.25434 10.6817C6.25434 10.6817 6.71835 11.455 7.94602 11.8223C7.65602 12.1897 7.29835 12.6247 7.29835 12.6247C5.162 12.557 4.35 11.1553 4.35 11.1553C4.35 8.04267 5.742 5.51967 5.742 5.51967C7.13402 4.47567 8.45835 4.50467 8.45835 4.50467L8.55502 4.62067C6.81502 5.12333 6.01267 5.887 6.01267 5.887C6.01267 5.887 6.22534 5.771 6.583 5.60667C7.61735 5.15233 8.43902 5.02667 8.77735 4.99767C8.83535 4.988 8.88368 4.97833 8.94168 4.97833C9.53135 4.901 10.1984 4.88167 10.8944 4.959C11.8127 5.06533 12.7987 5.336 13.804 5.887C13.804 5.887 13.0404 5.162 11.397 4.65933L11.5324 4.50467C11.5324 4.50467 12.8567 4.47567 14.2487 5.51967C14.2487 5.51967 15.6407 8.04267 15.6407 11.1553C15.6407 11.1553 14.819 12.557 12.6827 12.6247Z" fill="#C0C0C0"/>
</g>
<g clip-path="url(#clip1_240_137)">
<path d="M50.2918 16.2506C57.8371 16.2506 61.9652 9.99786 61.9652 4.57716C61.9652 4.40138 61.9613 4.22169 61.9535 4.04591C62.7566 3.46516 63.4496 2.74582 64 1.92169C63.2521 2.25444 62.4581 2.47176 61.6449 2.56622C62.501 2.05303 63.1421 1.24683 63.4492 0.297083C62.6438 0.774407 61.763 1.11112 60.8446 1.29279C60.2257 0.635244 59.4075 0.199874 58.5164 0.0539861C57.6253 -0.0919015 56.711 0.0598189 55.9148 0.485691C55.1186 0.911565 54.4848 1.58786 54.1115 2.41003C53.7383 3.23221 53.6462 4.15446 53.8496 5.03419C52.2188 4.95235 50.6233 4.5287 49.1666 3.79069C47.71 3.05269 46.4247 2.01681 45.3941 0.750207C44.8703 1.65331 44.71 2.72198 44.9459 3.73902C45.1817 4.75606 45.7959 5.64515 46.6637 6.2256C46.0122 6.20492 45.375 6.02951 44.8047 5.71388V5.76466C44.8041 6.7124 45.1317 7.6311 45.7319 8.36455C46.3321 9.09807 47.1678 9.6011 48.0969 9.78807C47.4934 9.95324 46.86 9.97724 46.2457 9.85841C46.5079 10.6734 47.018 11.3863 47.7048 11.8976C48.3916 12.4088 49.2209 12.6928 50.077 12.71C48.6237 13.8515 46.8285 14.4707 44.9805 14.4678C44.6527 14.4673 44.3253 14.4472 44 14.4077C45.8774 15.6121 48.0613 16.2518 50.2918 16.2506Z" fill="#C0C0C0"/>
</g>
<defs>
<clipPath id="clip0_240_137">
<rect width="20" height="19.3333" fill="white"/>
</clipPath>
<clipPath id="clip1_240_137">
<rect width="20" height="16.5517" fill="white" transform="translate(44)"/>
</clipPath>
</defs>
</svg>
