<svg width="64" height="20" viewBox="0 0 64 20" fill="none" xmlns="http://www.w3.org/2000/svg">
<g clip-path="url(#clip0_294_202)">
<path d="M8.18766 8.12854C7.63666 8.12854 7.20166 8.61187 7.20166 9.20154C7.20166 9.79121 7.64633 10.2745 8.18766 10.2745C8.73866 10.2745 9.17366 9.79121 9.17366 9.20154C9.18333 8.61187 8.73866 8.12854 8.18766 8.12854ZM11.716 8.12854C11.165 8.12854 10.73 8.61187 10.73 9.20154C10.73 9.79121 11.1747 10.2745 11.716 10.2745C12.267 10.2745 12.702 9.79121 12.702 9.20154C12.702 8.61187 12.267 8.12854 11.716 8.12854Z" fill="#C0C0C0"/>
<path d="M16.414 0.0181885H3.46067C2.36834 0.0181885 1.479 0.907522 1.479 2.00952V15.0789C1.479 16.1809 2.36834 17.0702 3.46067 17.0702H14.4227L13.9104 15.2819L15.1477 16.4322L16.3174 17.5149L18.3957 19.3515V2.00952C18.3957 0.907522 17.5064 0.0181885 16.414 0.0181885ZM12.6827 12.6429C12.6827 12.6429 12.3347 12.2272 12.0447 11.8599C13.311 11.5022 13.7944 10.7095 13.7944 10.7095C13.398 10.9705 13.021 11.1542 12.6827 11.2799C12.1994 11.4829 11.7354 11.6182 11.281 11.6955C10.353 11.8695 9.50235 11.8212 8.77735 11.6859C8.22635 11.5795 7.75268 11.4249 7.35635 11.2702C7.13402 11.1832 6.89235 11.0769 6.65067 10.9415C6.62167 10.9222 6.59267 10.9125 6.56367 10.8932C6.54434 10.8835 6.53467 10.8739 6.525 10.8642C6.351 10.7675 6.25434 10.6999 6.25434 10.6999C6.25434 10.6999 6.71835 11.4732 7.94602 11.8405C7.65602 12.2079 7.29835 12.6429 7.29835 12.6429C5.162 12.5752 4.35 11.1735 4.35 11.1735C4.35 8.06085 5.742 5.53786 5.742 5.53786C7.13402 4.49386 8.45835 4.52286 8.45835 4.52286L8.55502 4.63886C6.81502 5.14152 6.01267 5.90519 6.01267 5.90519C6.01267 5.90519 6.22534 5.78919 6.583 5.62486C7.61735 5.17052 8.43902 5.04486 8.77735 5.01586C8.83535 5.00619 8.88368 4.99652 8.94168 4.99652C9.53135 4.91919 10.1984 4.89986 10.8944 4.97719C11.8127 5.08352 12.7987 5.35419 13.804 5.90519C13.804 5.90519 13.0404 5.18019 11.397 4.67752L11.5324 4.52286C11.5324 4.52286 12.8567 4.49386 14.2487 5.53786C14.2487 5.53786 15.6407 8.06085 15.6407 11.1735C15.6407 11.1735 14.819 12.5752 12.6827 12.6429Z" fill="#C0C0C0"/>
</g>
<g clip-path="url(#clip1_294_202)">
<path d="M50.2918 16.2688C57.8371 16.2688 61.9652 10.0161 61.9652 4.59535C61.9652 4.41957 61.9613 4.23988 61.9535 4.0641C62.7566 3.48335 63.4496 2.76401 64 1.93988C63.2521 2.27263 62.4581 2.48995 61.6449 2.58441C62.501 2.07122 63.1421 1.26502 63.4492 0.315271C62.6438 0.792595 61.763 1.12931 60.8446 1.31097C60.2257 0.653432 59.4075 0.218062 58.5164 0.0721746C57.6253 -0.073713 56.711 0.0780074 55.9148 0.503879C55.1186 0.929754 54.4848 1.60605 54.1115 2.42822C53.7383 3.2504 53.6462 4.17264 53.8496 5.05238C52.2188 4.97054 50.6233 4.54689 49.1666 3.80888C47.71 3.07088 46.4247 2.035 45.3941 0.768395C44.8703 1.6715 44.71 2.74017 44.9459 3.75721C45.1817 4.77424 45.7959 5.66334 46.6637 6.24379C46.0122 6.22311 45.375 6.0477 44.8047 5.73206V5.78285C44.8041 6.73059 45.1317 7.64929 45.7319 8.38274C46.3321 9.11626 47.1678 9.61929 48.0969 9.80626C47.4934 9.97143 46.86 9.99543 46.2457 9.8766C46.5079 10.6916 47.018 11.4045 47.7048 11.9158C48.3916 12.4269 49.2209 12.7109 50.077 12.7282C48.6237 13.8697 46.8285 14.4889 44.9805 14.486C44.6527 14.4855 44.3253 14.4654 44 14.4258C45.8774 15.6303 48.0613 16.27 50.2918 16.2688Z" fill="#C0C0C0"/>
</g>
<defs>
<clipPath id="clip0_294_202">
<rect width="20" height="19.3333" fill="white" transform="translate(0 0.0181885)"/>
</clipPath>
<clipPath id="clip1_294_202">
<rect width="20" height="16.5517" fill="white" transform="translate(44 0.0181885)"/>
</clipPath>
</defs>
</svg>
