<svg width="64" height="20" viewBox="0 0 64 20" fill="none" xmlns="http://www.w3.org/2000/svg">
<g clip-path="url(#clip0_240_92)">
<path d="M8.1876 8.12842C7.6366 8.12842 7.2016 8.61175 7.2016 9.20142C7.2016 9.79108 7.64627 10.2744 8.1876 10.2744C8.7386 10.2744 9.1736 9.79108 9.1736 9.20142C9.18327 8.61175 8.7386 8.12842 8.1876 8.12842ZM11.7159 8.12842C11.1649 8.12842 10.7299 8.61175 10.7299 9.20142C10.7299 9.79108 11.1746 10.2744 11.7159 10.2744C12.2669 10.2744 12.7019 9.79108 12.7019 9.20142C12.7019 8.61175 12.2669 8.12842 11.7159 8.12842Z" fill="#B2B2B2"/>
<path d="M16.414 0.0180664H3.46061C2.36828 0.0180664 1.47894 0.9074 1.47894 2.0094V15.0787C1.47894 16.1807 2.36828 17.0701 3.46061 17.0701H14.4226L13.9103 15.2817L15.1476 16.4321L16.3173 17.5147L18.3956 19.3514V2.0094C18.3956 0.9074 17.5063 0.0180664 16.414 0.0180664ZM12.6826 12.6427C12.6826 12.6427 12.3346 12.2271 12.0446 11.8597C13.311 11.5021 13.7943 10.7094 13.7943 10.7094C13.398 10.9704 13.021 11.1541 12.6826 11.2797C12.1993 11.4827 11.7353 11.6181 11.281 11.6954C10.353 11.8694 9.50229 11.8211 8.77729 11.6857C8.22629 11.5794 7.75262 11.4247 7.35629 11.2701C7.13396 11.1831 6.89229 11.0767 6.65061 10.9414C6.62161 10.9221 6.59261 10.9124 6.56361 10.8931C6.54428 10.8834 6.53461 10.8737 6.52494 10.8641C6.35094 10.7674 6.25428 10.6997 6.25428 10.6997C6.25428 10.6997 6.71829 11.4731 7.94596 11.8404C7.65596 12.2077 7.29829 12.6427 7.29829 12.6427C5.16194 12.5751 4.34994 11.1734 4.34994 11.1734C4.34994 8.06073 5.74194 5.53773 5.74194 5.53773C7.13396 4.49373 8.45829 4.52273 8.45829 4.52273L8.55496 4.63873C6.81496 5.1414 6.01261 5.90507 6.01261 5.90507C6.01261 5.90507 6.22528 5.78907 6.58294 5.62473C7.61729 5.1704 8.43896 5.04473 8.77729 5.01573C8.83529 5.00607 8.88362 4.9964 8.94162 4.9964C9.53129 4.91907 10.1983 4.89973 10.8943 4.97707C11.8126 5.0834 12.7986 5.35407 13.804 5.90507C13.804 5.90507 13.0403 5.18007 11.397 4.6774L11.5323 4.52273C11.5323 4.52273 12.8566 4.49373 14.2486 5.53773C14.2486 5.53773 15.6406 8.06073 15.6406 11.1734C15.6406 11.1734 14.819 12.5751 12.6826 12.6427Z" fill="#B2B2B2"/>
</g>
<g clip-path="url(#clip1_240_92)">
<path d="M50.2918 16.2687C57.8371 16.2687 61.9652 10.0159 61.9652 4.59522C61.9652 4.41945 61.9613 4.23976 61.9535 4.06398C62.7566 3.48323 63.4496 2.76389 64 1.93976C63.2521 2.27251 62.4581 2.48983 61.6449 2.58429C62.501 2.0711 63.1421 1.2649 63.4492 0.315149C62.6438 0.792473 61.763 1.12918 60.8446 1.31085C60.2257 0.65331 59.4075 0.21794 58.5164 0.0720525C57.6253 -0.0738351 56.711 0.0778853 55.9148 0.503757C55.1186 0.929632 54.4848 1.60593 54.1115 2.4281C53.7383 3.25027 53.6462 4.17252 53.8496 5.05226C52.2188 4.97042 50.6233 4.54676 49.1666 3.80876C47.71 3.07076 46.4247 2.03487 45.3941 0.768273C44.8703 1.67138 44.71 2.74005 44.9459 3.75709C45.1817 4.77412 45.7959 5.66322 46.6637 6.24367C46.0122 6.22298 45.375 6.04758 44.8047 5.73194V5.78273C44.8041 6.73047 45.1317 7.64917 45.7319 8.38262C46.3321 9.11614 47.1678 9.61917 48.0969 9.80614C47.4934 9.97131 46.86 9.99531 46.2457 9.87648C46.5079 10.6915 47.018 11.4044 47.7048 11.9157C48.3916 12.4268 49.2209 12.7108 50.077 12.7281C48.6237 13.8696 46.8285 14.4888 44.9805 14.4859C44.6527 14.4854 44.3253 14.4652 44 14.4257C45.8774 15.6301 48.0613 16.2699 50.2918 16.2687Z" fill="#B2B2B2"/>
</g>
<defs>
<clipPath id="clip0_240_92">
<rect width="20" height="19.3333" fill="white" transform="translate(0 0.0180664)"/>
</clipPath>
<clipPath id="clip1_240_92">
<rect width="20" height="16.5517" fill="white" transform="translate(44 0.0180664)"/>
</clipPath>
</defs>
</svg>
