<svg width="24" height="22" viewBox="0 0 24 22" fill="none" xmlns="http://www.w3.org/2000/svg">
<path d="M1.42784 12.4913L1.51182 12.3629L6.57583 4.66097C6.64984 4.54821 6.82383 4.55987 6.87982 4.68235C7.72583 6.52568 8.45583 8.81819 8.11384 10.2454C7.96784 10.8326 7.56784 11.6279 7.11782 12.3629C7.05985 12.4699 6.99584 12.5749 6.92782 12.676C6.89582 12.7226 6.84182 12.7499 6.78381 12.7499H1.57582C1.43582 12.7499 1.35383 12.6021 1.42784 12.4913Z" fill="white"/>
<path d="M24 13.9225V15.1417C24 15.2117 23.956 15.2739 23.892 15.3011C23.5 15.4644 22.158 16.0633 21.6 16.8178C20.176 18.7447 19.088 21.5 16.656 21.5H6.50998C2.91402 21.5 0 18.6572 0 15.1494V15.0367C0 14.9433 0.0779825 14.8675 0.173991 14.8675H5.83002C5.94199 14.8675 6.02398 14.9686 6.01402 15.0755C5.97399 15.4333 6.04201 15.7989 6.216 16.1314C6.55199 16.7945 7.248 17.2086 7.99999 17.2086H10.8V15.0833H8.03199C7.89 15.0833 7.80602 14.9239 7.88802 14.8111C7.91799 14.7664 7.95202 14.7197 7.988 14.6672C8.25001 14.3056 8.624 13.7436 8.99601 13.1039C9.25001 12.6722 9.49599 12.2114 9.694 11.7486C9.73402 11.665 9.76599 11.5794 9.79799 11.4958C9.85199 11.348 9.90801 11.21 9.948 11.072C9.98802 10.9553 10.02 10.8328 10.052 10.718C10.146 10.3253 10.186 9.90916 10.186 9.4775C10.186 9.30834 10.178 9.13139 10.162 8.96223C10.154 8.77751 10.13 8.59276 10.106 8.40804C10.09 8.24471 10.06 8.08332 10.028 7.91416C9.98802 7.66722 9.932 7.42224 9.86799 7.17526L9.84599 7.08196C9.79799 6.91276 9.75801 6.7514 9.70202 6.58224C9.54399 6.05137 9.36202 5.53417 9.17 5.05001C9.1 4.8575 9.01999 4.67278 8.93999 4.48807C8.82202 4.21001 8.70199 3.95724 8.592 3.71806C8.53602 3.60916 8.48801 3.50999 8.44001 3.40889C8.38601 3.29416 8.33002 3.17943 8.274 3.07057C8.23401 2.98696 8.18799 2.90917 8.15599 2.83139L7.814 2.21694C7.766 2.13333 7.84601 2.03416 7.93999 2.05944L10.08 2.62332H10.086C10.09 2.62332 10.092 2.62528 10.094 2.62528L10.376 2.7011L10.686 2.78668L10.8 2.81776V1.58111C10.8 0.984158 11.292 0.5 11.9 0.5C12.204 0.5 12.48 0.620557 12.678 0.81693C12.876 1.01334 13 1.28167 13 1.58111V3.41668L13.228 3.47887C13.246 3.48474 13.264 3.4925 13.28 3.50416C13.336 3.545 13.416 3.60526 13.518 3.67918C13.598 3.74137 13.684 3.81723 13.788 3.89501C13.994 4.05637 14.24 4.26444 14.51 4.50363C14.582 4.56389 14.652 4.62611 14.716 4.68834C15.064 5.00334 15.454 5.37277 15.826 5.78111C15.93 5.89584 16.032 6.0125 16.136 6.13499C16.24 6.25944 16.35 6.38193 16.446 6.50446C16.572 6.66778 16.708 6.83694 16.826 7.0139C16.882 7.09751 16.946 7.18306 17 7.26667C17.152 7.49026 17.286 7.72168 17.414 7.95307C17.468 8.06 17.524 8.17666 17.572 8.29139C17.714 8.60056 17.826 8.91556 17.898 9.23056C17.92 9.29861 17.936 9.3725 17.944 9.43863V9.45418C17.968 9.54749 17.976 9.64666 17.984 9.74776C18.016 10.0706 18 10.3933 17.928 10.718C17.898 10.8561 17.858 10.9864 17.81 11.1245C17.762 11.2567 17.714 11.3947 17.652 11.525C17.532 11.7953 17.39 12.0656 17.222 12.3183C17.168 12.4117 17.104 12.5108 17.04 12.6042C16.97 12.7033 16.898 12.7967 16.834 12.8881C16.746 13.0047 16.652 13.1272 16.556 13.2361C16.47 13.3508 16.382 13.4656 16.286 13.5667C16.152 13.7203 16.024 13.8661 15.89 14.0061C15.81 14.0975 15.724 14.1908 15.636 14.2745C15.55 14.3678 15.462 14.4514 15.382 14.5292C15.248 14.6594 15.136 14.7605 15.042 14.8442L14.822 15.0406C14.79 15.0678 14.748 15.0833 14.704 15.0833H13V17.2086H15.144C15.624 17.2086 16.08 17.0433 16.448 16.74C16.574 16.6331 17.124 16.1703 17.774 15.4722C17.796 15.4489 17.824 15.4314 17.856 15.4236L23.778 13.7592C23.888 13.7281 24 13.8097 24 13.9225Z" fill="white"/>
</svg>
