<svg width="94" height="21" viewBox="0 0 94 21" fill="none" xmlns="http://www.w3.org/2000/svg">
<path d="M6.74131 15.993C13.372 15.993 16.9998 10.4982 16.9998 5.73451C16.9998 5.58004 16.9964 5.42213 16.9895 5.26765C17.6952 4.7573 18.3042 4.12515 18.7879 3.40092C18.1307 3.69334 17.4329 3.88431 16.7183 3.96732C17.4707 3.51634 18.034 2.80786 18.3039 1.97323C17.5961 2.3927 16.822 2.6886 16.0149 2.84824C15.4711 2.2704 14.7521 1.8878 13.969 1.7596C13.1859 1.6314 12.3824 1.76473 11.6827 2.13898C10.983 2.51323 10.4261 3.10755 10.0981 3.83007C9.77001 4.55258 9.68911 5.36304 9.86787 6.13614C8.43469 6.06422 7.03262 5.69192 5.75255 5.04337C4.47248 4.39482 3.34299 3.4845 2.43731 2.37143C1.977 3.16507 1.83614 4.1042 2.04337 4.99796C2.2506 5.89172 2.79036 6.67305 3.55296 7.18314C2.98045 7.16496 2.42047 7.01082 1.91931 6.73344V6.77807C1.91879 7.61093 2.20672 8.41827 2.73415 9.06285C3.26158 9.70743 3.99596 10.1495 4.81244 10.3138C4.2821 10.4589 3.72548 10.4801 3.18565 10.3756C3.41605 11.0919 3.86432 11.7183 4.4679 12.1676C5.07148 12.6168 5.80025 12.8664 6.55251 12.8815C5.2754 13.8847 3.69779 14.4288 2.07378 14.4263C1.78578 14.4258 1.49806 14.4082 1.21216 14.3734C2.86198 15.4319 4.78116 15.994 6.74131 15.993Z" fill="#F1F8FF"/>
<g clip-path="url(#clip0_21_240)">
<path d="M47 2.30078C49.6719 2.30078 49.9883 2.3125 51.0391 2.35937C52.0156 2.40234 52.543 2.56641 52.8945 2.70313C53.3594 2.88281 53.6953 3.10156 54.043 3.44922C54.3945 3.80078 54.6094 4.13281 54.7891 4.59766C54.9258 4.94922 55.0898 5.48047 55.1328 6.45313C55.1797 7.50781 55.1914 7.82422 55.1914 10.4922C55.1914 13.1641 55.1797 13.4805 55.1328 14.5313C55.0898 15.5078 54.9258 16.0352 54.7891 16.3867C54.6094 16.8516 54.3906 17.1875 54.043 17.5352C53.6914 17.8867 53.3594 18.1016 52.8945 18.2813C52.543 18.418 52.0117 18.582 51.0391 18.625C49.9844 18.6719 49.668 18.6836 47 18.6836C44.3281 18.6836 44.0117 18.6719 42.9609 18.625C41.9844 18.582 41.457 18.418 41.1055 18.2813C40.6406 18.1016 40.3047 17.8828 39.957 17.5352C39.6055 17.1836 39.3906 16.8516 39.2109 16.3867C39.0742 16.0352 38.9102 15.5039 38.8672 14.5313C38.8203 13.4766 38.8086 13.1602 38.8086 10.4922C38.8086 7.82031 38.8203 7.50391 38.8672 6.45313C38.9102 5.47656 39.0742 4.94922 39.2109 4.59766C39.3906 4.13281 39.6094 3.79688 39.957 3.44922C40.3086 3.09766 40.6406 2.88281 41.1055 2.70313C41.457 2.56641 41.9883 2.40234 42.9609 2.35937C44.0117 2.3125 44.3281 2.30078 47 2.30078ZM47 0.5C44.2852 0.5 43.9453 0.511719 42.8789 0.558594C41.8164 0.605469 41.0859 0.777344 40.4531 1.02344C39.793 1.28125 39.2344 1.62109 38.6797 2.17969C38.1211 2.73438 37.7812 3.29297 37.5234 3.94922C37.2773 4.58594 37.1055 5.3125 37.0586 6.375C37.0117 7.44531 37 7.78516 37 10.5C37 13.2148 37.0117 13.5547 37.0586 14.6211C37.1055 15.6836 37.2773 16.4141 37.5234 17.0469C37.7812 17.707 38.1211 18.2656 38.6797 18.8203C39.2344 19.375 39.793 19.7188 40.4492 19.9727C41.0859 20.2188 41.8125 20.3906 42.875 20.4375C43.9414 20.4844 44.2812 20.4961 46.9961 20.4961C49.7109 20.4961 50.0508 20.4844 51.1172 20.4375C52.1797 20.3906 52.9102 20.2188 53.543 19.9727C54.1992 19.7188 54.7578 19.375 55.3125 18.8203C55.8672 18.2656 56.2109 17.707 56.4648 17.0508C56.7109 16.4141 56.8828 15.6875 56.9297 14.625C56.9766 13.5586 56.9883 13.2188 56.9883 10.5039C56.9883 7.78906 56.9766 7.44922 56.9297 6.38281C56.8828 5.32031 56.7109 4.58984 56.4648 3.95703C56.2187 3.29297 55.8789 2.73438 55.3203 2.17969C54.7656 1.625 54.207 1.28125 53.5508 1.02734C52.9141 0.78125 52.1875 0.609375 51.125 0.5625C50.0547 0.511719 49.7148 0.5 47 0.5Z" fill="#F1F8FF"/>
<path d="M47 5.36328C44.1641 5.36328 41.8633 7.66406 41.8633 10.5C41.8633 13.3359 44.1641 15.6367 47 15.6367C49.8359 15.6367 52.1367 13.3359 52.1367 10.5C52.1367 7.66406 49.8359 5.36328 47 5.36328ZM47 13.832C45.1602 13.832 43.668 12.3398 43.668 10.5C43.668 8.66016 45.1602 7.16797 47 7.16797C48.8398 7.16797 50.332 8.66016 50.332 10.5C50.332 12.3398 48.8398 13.832 47 13.832Z" fill="#F1F8FF"/>
<path d="M53.5391 5.16028C53.5391 5.82434 53 6.3595 52.3398 6.3595C51.6758 6.3595 51.1406 5.82044 51.1406 5.16028C51.1406 4.49622 51.6797 3.96106 52.3398 3.96106C53 3.96106 53.5391 4.50012 53.5391 5.16028Z" fill="#F1F8FF"/>
</g>
<path d="M82.24 8.89026C81.67 8.89026 81.22 9.39026 81.22 10.0003C81.22 10.6103 81.68 11.1103 82.24 11.1103C82.81 11.1103 83.26 10.6103 83.26 10.0003C83.27 9.39026 82.81 8.89026 82.24 8.89026ZM85.89 8.89026C85.32 8.89026 84.87 9.39026 84.87 10.0003C84.87 10.6103 85.33 11.1103 85.89 11.1103C86.46 11.1103 86.91 10.6103 86.91 10.0003C86.91 9.39026 86.46 8.89026 85.89 8.89026Z" fill="#F1F8FF"/>
<path d="M90.7499 0.5H77.3499C76.2199 0.5 75.2999 1.42 75.2999 2.56V16.08C75.2999 17.22 76.2199 18.14 77.3499 18.14H88.6899L88.1599 16.29L89.4399 17.48L90.6499 18.6L92.7999 20.5V2.56C92.7999 1.42 91.8799 0.5 90.7499 0.5ZM86.8899 13.56C86.8899 13.56 86.5299 13.13 86.2299 12.75C87.5399 12.38 88.0399 11.56 88.0399 11.56C87.6299 11.83 87.2399 12.02 86.8899 12.15C86.3899 12.36 85.9099 12.5 85.4399 12.58C84.4799 12.76 83.5999 12.71 82.8499 12.57C82.2799 12.46 81.7899 12.3 81.3799 12.14C81.1499 12.05 80.8999 11.94 80.6499 11.8C80.6199 11.78 80.5899 11.77 80.5599 11.75C80.5399 11.74 80.5299 11.73 80.5199 11.72C80.3399 11.62 80.2399 11.55 80.2399 11.55C80.2399 11.55 80.7199 12.35 81.9899 12.73C81.6899 13.11 81.3199 13.56 81.3199 13.56C79.1099 13.49 78.2699 12.04 78.2699 12.04C78.2699 8.82 79.7099 6.21 79.7099 6.21C81.1499 5.13 82.5199 5.16 82.5199 5.16L82.6199 5.28C80.8199 5.8 79.9899 6.59 79.9899 6.59C79.9899 6.59 80.2099 6.47 80.5799 6.3C81.6499 5.83 82.4999 5.7 82.8499 5.67C82.9099 5.66 82.9599 5.65 83.0199 5.65C83.6299 5.57 84.3199 5.55 85.0399 5.63C85.9899 5.74 87.0099 6.02 88.0499 6.59C88.0499 6.59 87.2599 5.84 85.5599 5.32L85.6999 5.16C85.6999 5.16 87.0699 5.13 88.5099 6.21C88.5099 6.21 89.9499 8.82 89.9499 12.04C89.9499 12.04 89.0999 13.49 86.8899 13.56V13.56Z" fill="#F1F8FF"/>
<defs>
<clipPath id="clip0_21_240">
<rect width="20" height="20" fill="white" transform="translate(37 0.5)"/>
</clipPath>
</defs>
</svg>
