<svg width="22" height="19" viewBox="0 0 22 19" fill="none" xmlns="http://www.w3.org/2000/svg">
<g clip-path="url(#clip0_269_234)">
<path d="M6.92098 18.6666C15.2208 18.6666 19.7618 11.6125 19.7618 5.49704C19.7618 5.29872 19.7575 5.09601 19.7489 4.8977C20.6322 4.24252 21.3946 3.43099 22 2.50123C21.1773 2.87663 20.3039 3.1218 19.4094 3.22837C20.3512 2.64941 21.0563 1.73989 21.3941 0.668409C20.5082 1.20691 19.5393 1.58678 18.529 1.79173C17.8482 1.04991 16.9482 0.558742 15.968 0.394157C14.9879 0.229572 13.9821 0.400738 13.1063 0.881191C12.2305 1.36164 11.5334 2.12462 11.1227 3.05217C10.7121 3.97971 10.6108 5.02016 10.8346 6.01265C9.04061 5.92031 7.28561 5.44236 5.68332 4.60977C4.08102 3.77718 2.66722 2.60854 1.53355 1.17961C0.957367 2.19846 0.781051 3.40409 1.04045 4.55148C1.29984 5.69886 1.97548 6.70191 2.93004 7.35674C2.21341 7.33341 1.51248 7.13553 0.885155 6.77944V6.83673C0.884517 7.90594 1.24492 8.94236 1.90512 9.76986C2.56531 10.5974 3.48454 11.1648 4.50656 11.3759C3.84272 11.5621 3.14599 11.5893 2.47027 11.4551C2.75867 12.3747 3.31978 13.1789 4.07529 13.7557C4.8308 14.3324 5.74303 14.6528 6.68465 14.6722C5.08606 15.9601 3.11133 16.6586 1.07851 16.6553C0.718013 16.6547 0.357866 16.632 0 16.5874C2.06512 17.9462 4.4674 18.6679 6.92098 18.6666Z" fill="white"/>
</g>
<defs>
<clipPath id="clip0_269_234">
<rect width="22" height="18.3333" fill="white" transform="translate(0 0.333252)"/>
</clipPath>
</defs>
</svg>
